<?xml version="1.0" standalone="no"?>
<!DOCTYPE svg PUBLIC "-//W3C//DTD SVG 20010904//EN"
 "http://www.w3.org/TR/2001/REC-SVG-20010904/DTD/svg10.dtd">
<svg version="1.0" xmlns="http://www.w3.org/2000/svg"
 width="2000.000000pt" height="1500.000000pt" viewBox="0 0 2000.000000 1500.000000"
 preserveAspectRatio="xMidYMid meet">

<g transform="translate(0.000000,1500.000000) scale(0.100000,-0.100000)"
fill="#000000" stroke="none">
<path d="M12150 12774 c-222 -42 -276 -63 -408 -154 l-91 -63 -58 7 c-32 3
-96 17 -143 31 -425 126 -920 100 -1250 -65 -118 -59 -233 -150 -395 -314
-158 -159 -299 -328 -437 -522 -128 -181 -150 -199 -365 -288 -603 -252 -1110
-615 -1566 -1124 -119 -134 -157 -159 -327 -222 -104 -38 -232 -103 -295 -150
-77 -57 -153 -96 -230 -120 -38 -12 -124 -39 -190 -60 -66 -22 -194 -57 -285
-79 -263 -63 -323 -92 -361 -176 -82 -179 83 -488 484 -912 182 -191 183 -196
128 -476 -75 -381 -99 -600 -107 -977 -8 -375 -12 -390 -159 -613 -292 -444
-468 -1022 -399 -1306 49 -201 185 -357 409 -470 184 -92 312 -125 553 -141
167 -11 209 -20 251 -56 29 -24 101 -161 228 -434 78 -165 154 -245 458 -473
109 -83 181 -140 257 -206 15 -13 37 -43 48 -67 24 -48 23 -63 -15 -209 -33
-126 -38 -182 -25 -255 24 -132 88 -209 231 -277 279 -134 439 -132 769 11 56
25 100 37 130 37 45 0 139 -28 235 -71 96 -43 142 -50 326 -50 99 0 242 -7
325 -17 212 -24 671 -23 849 1 408 55 678 128 1085 291 113 45 239 92 280 104
76 24 190 77 225 106 17 14 17 16 2 11 -49 -16 -155 -28 -205 -24 -36 3 -64 1
-77 -7 -25 -16 -150 -39 -163 -31 -6 3 -21 2 -35 -3 -41 -16 -209 -42 -228
-36 -10 3 -39 -1 -64 -9 -25 -9 -65 -16 -90 -16 -24 0 -55 -4 -70 -10 -14 -5
-59 -12 -99 -14 -40 -2 -84 -9 -96 -16 -12 -7 -66 -16 -119 -20 -53 -5 -127
-14 -166 -20 -165 -26 -265 -42 -335 -56 -41 -8 -94 -12 -117 -9 -28 4 -60 0
-91 -11 -26 -9 -69 -16 -97 -16 -27 0 -58 -4 -67 -9 -18 -10 -111 -24 -248
-39 -41 -5 -129 -18 -195 -30 -200 -35 -236 -36 -289 -10 -51 24 -99 84 -110
138 -10 43 7 41 23 -3 26 -74 87 -122 157 -127 48 -3 262 29 327 48 26 8 52
12 57 9 11 -7 203 20 264 36 21 6 67 12 102 14 35 2 73 9 86 16 13 8 50 12 88
10 36 -1 86 3 110 8 25 6 123 22 219 36 95 14 177 28 182 31 6 3 47 7 92 8 45
2 102 11 127 19 25 9 68 17 97 17 29 0 73 7 99 16 25 8 52 13 60 10 8 -3 35
-1 62 5 26 5 90 14 142 20 52 5 119 16 149 25 30 8 62 13 71 11 22 -6 139 16
167 31 14 8 38 10 63 6 49 -8 207 21 248 46 31 19 72 92 72 128 0 26 -6 26 93
6 75 -15 84 -15 134 0 70 22 153 99 230 214 75 110 163 272 148 272 -2 0 -23
-37 -47 -82 -43 -84 -129 -211 -176 -261 -39 -41 -112 -87 -136 -86 -14 1 -11
4 11 10 48 14 156 120 217 213 60 91 132 232 196 384 41 97 48 107 139 195 52
50 112 109 133 130 21 21 38 34 38 29 0 -4 -55 -59 -121 -122 -107 -100 -159
-160 -159 -181 0 -4 33 25 73 65 40 39 99 96 131 125 64 61 78 83 82 126 2 17
6 55 10 86 8 71 -12 114 -59 129 l-32 10 35 -5 c33 -5 34 -4 15 9 -19 13 -46
20 -71 17 -7 0 -14 -11 -17 -23 -11 -39 -16 -14 -7 32 5 25 9 65 10 90 0 40 5
51 41 85 93 91 249 313 394 560 109 186 165 300 165 337 0 58 -40 108 -106
133 l-39 15 40 -5 40 -5 -30 15 c-41 20 -92 18 -142 -5 -24 -10 -43 -16 -43
-12 0 4 19 20 43 36 34 23 50 27 88 23 59 -5 113 -38 147 -90 21 -31 28 -57
32 -111 l5 -70 63 189 c220 668 288 1320 213 2040 -80 755 -386 1536 -834
2130 -147 194 -368 431 -553 592 l-71 62 -7 -137 c-3 -75 -9 -200 -13 -278
l-6 -141 86 -254 c103 -302 117 -380 117 -631 0 -489 -116 -873 -330 -1089
-66 -67 -174 -149 -197 -149 -4 0 17 16 47 36 142 93 231 199 310 368 116 247
169 547 157 900 -7 215 -19 274 -119 571 -93 277 -89 240 -69 625 l14 265 177
175 c213 210 289 312 350 471 92 242 83 570 -25 839 -122 306 -327 522 -575
607 -36 12 -56 22 -45 23 11 0 47 -11 79 -25 87 -35 79 -24 -11 18 -130 60
-210 78 -368 82 -77 2 -151 1 -165 -1z m373 -61 c-7 -2 -19 -2 -25 0 -7 3 -2
5 12 5 14 0 19 -2 13 -5z m60 -10 c-7 -2 -19 -2 -25 0 -7 3 -2 5 12 5 14 0 19
-2 13 -5z m-1456 -99 c-3 -3 -12 -4 -19 -1 -8 3 -5 6 6 6 11 1 17 -2 13 -5z
m1299 -7 c-236 -150 -323 -252 -475 -557 -53 -107 -110 -215 -126 -240 -65
-103 -251 -261 -515 -437 -170 -113 -405 -262 -426 -269 -17 -7 -18 -6 -4 12
8 10 20 24 25 30 23 26 55 65 140 169 114 140 302 360 424 495 221 246 596
616 713 704 76 57 184 105 238 105 23 0 24 -1 6 -12z m-1153 -4 c-7 -2 -21 -2
-30 0 -10 3 -4 5 12 5 17 0 24 -2 18 -5z m60 -10 c-7 -2 -21 -2 -30 0 -10 3
-4 5 12 5 17 0 24 -2 18 -5z m60 -10 c-7 -2 -19 -2 -25 0 -7 3 -2 5 12 5 14 0
19 -2 13 -5z m50 -10 c-7 -2 -19 -2 -25 0 -7 3 -2 5 12 5 14 0 19 -2 13 -5z
m108 -24 c35 -12 71 -25 79 -31 12 -7 10 -8 -5 -3 -11 3 -49 15 -85 27 -89 27
-87 26 -69 27 9 1 45 -8 80 -20z m-249 -49 c172 -31 446 -129 431 -154 -3 -5
-1 -6 4 -3 14 9 107 -43 96 -54 -5 -5 -52 14 -106 40 -95 48 -138 64 -267 98
-100 26 -349 23 -455 -5 -100 -27 -217 -84 -245 -119 -31 -40 -25 -67 38 -161
123 -182 260 -433 322 -585 l24 -58 -235 -232 c-168 -167 -279 -287 -393 -427
-138 -169 -221 -267 -178 -209 7 9 15 48 17 85 2 38 8 107 11 154 4 47 8 116
8 153 0 85 10 76 -229 196 -122 61 -195 92 -225 95 -156 16 -169 19 -172 35
-4 20 -49 -75 -71 -149 -9 -30 -23 -91 -31 -135 l-16 -80 5 116 c6 134 23 195
95 344 170 348 483 699 830 932 72 49 167 93 223 104 171 35 384 43 519 19z
m428 -20 c19 -11 31 -19 25 -19 -5 0 -26 8 -45 19 -19 11 -30 19 -25 19 6 0
26 -8 45 -19z m160 -85 c0 -3 -18 4 -40 15 -22 11 -40 23 -40 25 0 3 18 -4 40
-15 22 -11 40 -23 40 -25z m-79 -1122 c63 -33 175 -98 249 -144 74 -45 176
-108 225 -138 50 -30 119 -67 154 -81 61 -25 64 -28 87 -85 14 -33 23 -65 22
-72 -2 -6 -41 -31 -88 -55 -46 -24 -93 -55 -103 -69 -28 -39 -44 -157 -26
-194 23 -47 40 -52 116 -31 100 27 187 45 192 40 8 -8 6 -274 -3 -389 -10
-131 -2 -170 74 -357 100 -245 126 -396 117 -697 -15 -518 -155 -865 -420
-1041 -115 -77 -239 -103 -492 -104 -206 -1 -251 6 -450 66 -215 65 -520 209
-615 290 -186 158 -316 395 -386 706 -12 53 -12 70 0 115 13 50 12 107 -3 107
-3 0 -20 -8 -36 -18 -83 -51 -145 -66 -276 -66 l-126 -1 -74 38 c-162 82 -302
212 -358 332 -108 232 -56 497 114 576 93 43 249 2 416 -112 110 -74 158 -142
201 -284 44 -142 55 -169 73 -180 20 -13 183 -45 225 -45 17 0 21 5 17 18 -44
154 -76 319 -93 477 -14 134 -8 507 9 620 26 159 64 294 95 335 74 97 142 150
297 230 226 118 429 233 513 291 l83 58 78 -38 c43 -21 129 -65 192 -98z
m-2756 -320 c-1 -32 1 -68 6 -80 7 -19 1 -26 -49 -54 -119 -67 -342 -221 -472
-325 -131 -105 -368 -333 -501 -481 -57 -63 -69 -72 -109 -78 -24 -4 -47 -8
-51 -10 -3 -2 -18 3 -34 11 -15 8 -29 13 -31 11 -2 -2 10 -35 26 -73 16 -38
29 -76 29 -84 0 -8 -7 2 -14 23 -41 109 -95 188 -160 228 -16 10 -25 19 -18
19 13 0 73 -49 110 -90 13 -14 23 -19 23 -12 1 41 308 371 510 548 163 143
388 307 565 411 101 59 159 92 166 93 3 0 5 -26 4 -57z m-1383 -1040 c32 -35
54 -77 79 -156 24 -74 49 -189 43 -198 -2 -3 -18 -9 -35 -13 -38 -7 -177 -77
-238 -119 -25 -17 -79 -61 -121 -98 l-76 -66 -37 26 c-26 19 -50 53 -85 122
-27 53 -62 113 -77 133 -25 33 -26 38 -14 69 45 114 249 265 422 312 81 21
110 19 139 -12z m790 -73 c26 -22 60 -68 80 -107 36 -69 73 -171 66 -179 -3
-2 -13 22 -22 54 -37 115 -87 198 -149 243 -22 16 -35 29 -30 29 6 0 30 -18
55 -40z m-68 -96 c58 -59 112 -208 123 -341 5 -59 3 -73 -8 -73 -45 0 -253
-121 -372 -217 -38 -30 -70 -53 -71 -51 -1 1 -13 48 -25 103 -53 241 -64 276
-92 315 -16 22 -29 43 -29 48 0 12 91 96 140 129 62 42 104 63 180 89 87 31
121 31 154 -2z m-1357 -129 c18 -14 51 -52 72 -84 47 -68 105 -180 98 -187 -3
-3 -32 9 -64 26 -33 17 -78 34 -100 37 -37 5 -42 2 -65 -28 -35 -48 -56 -97
-78 -185 -24 -92 -25 -141 -6 -214 8 -30 13 -56 12 -57 -7 -8 -346 202 -418
259 -33 26 -36 32 -31 66 18 120 120 235 278 313 164 80 247 95 302 54z m-584
-12 c-7 -2 -19 -2 -25 0 -7 3 -2 5 12 5 14 0 19 -2 13 -5z m1435 -83 c18 -11
41 -34 51 -51 16 -26 64 -201 86 -317 l7 -34 -27 18 c-24 15 -34 16 -81 6 -67
-14 -229 -89 -296 -138 -28 -19 -51 -34 -53 -32 -1 2 -12 21 -23 44 -22 43
-90 124 -162 191 l-45 42 35 36 c55 57 167 139 253 186 133 71 198 83 255 49z
m729 -2 c-3 -8 -6 -5 -6 6 -1 11 2 17 5 13 3 -3 4 -12 1 -19z m540 16 c-3 -3
-12 -4 -19 -1 -8 3 -5 6 6 6 11 1 17 -2 13 -5z m78 -24 c3 -6 -1 -7 -9 -4 -18
7 -21 14 -7 14 6 0 13 -4 16 -10z m-608 -42 c-3 -7 -5 -2 -5 12 0 14 2 19 5
13 2 -7 2 -19 0 -25z m704 -55 c16 -23 29 -45 29 -50 0 -4 -12 10 -26 32 -15
22 -41 56 -58 75 -30 33 -30 34 -2 10 15 -14 41 -44 57 -67z m-2891 57 c-8 -5
-28 -9 -45 -9 l-30 1 30 8 c17 4 37 8 45 9 13 1 13 0 0 -9z m-103 -6 c-3 -3
-12 -4 -19 -1 -8 3 -5 6 6 6 11 1 17 -2 13 -5z m203 -9 c-7 -9 -27 -14 -49
-14 l-36 2 35 7 35 7 -35 5 c-31 4 -30 5 14 6 42 2 47 0 36 -13z m-245 -5 c-3
-5 -13 -10 -21 -10 -15 0 -20 -53 -8 -84 9 -24 24 -19 24 7 0 25 26 67 41 67
5 0 1 -10 -11 -22 -47 -51 -5 -121 138 -230 28 -22 52 -42 52 -45 0 -8 -92 62
-139 105 -25 24 -57 52 -70 63 -13 10 -19 19 -12 19 6 0 11 4 11 10 0 5 -7 7
-15 4 -10 -4 -20 5 -30 30 -19 46 -19 52 5 76 21 21 46 28 35 10z m134 -4 c-2
-2 -20 -6 -39 -10 -25 -4 -31 -3 -20 4 14 9 69 15 59 6z m2306 -36 c10 -11 16
-20 13 -20 -3 0 -13 9 -23 20 -10 11 -16 20 -13 20 3 0 13 -9 23 -20z m-2225
5 c0 -3 -11 -22 -24 -43 -14 -20 -31 -59 -38 -87 -6 -27 -14 -52 -15 -54 -6
-8 -74 63 -89 91 -23 44 -18 67 19 83 30 13 147 21 147 10z m2700 -33 c47 -50
85 -132 117 -251 43 -159 35 -401 -13 -401 -8 0 -14 10 -14 25 0 37 -75 258
-105 310 -38 64 -72 88 -114 81 -54 -9 -171 -69 -234 -120 -33 -26 -60 -46
-61 -44 -1 2 -10 44 -20 93 -10 50 -21 99 -23 111 -10 43 203 184 328 218 84
23 98 20 139 -22z m-2075 -28 c39 -18 99 -52 135 -75 84 -55 227 -200 262
-265 l27 -50 -50 -54 c-45 -48 -83 -114 -103 -177 -15 -48 -102 -19 -177 59
-82 83 -194 343 -220 510 -17 108 -3 113 126 52z m-141 -76 c17 -125 133 -402
201 -476 20 -23 34 -42 30 -42 -14 0 -270 135 -286 151 -29 29 -44 146 -30
236 13 78 57 197 71 188 4 -2 11 -28 14 -57z m1651 54 c27 -18 56 -76 81 -158
44 -149 47 -504 5 -504 -10 0 -28 12 -42 26 -41 45 -134 112 -211 153 -116 63
-189 84 -295 85 l-92 1 -7 50 -7 50 54 48 c164 148 457 290 514 249z m-2195
-190 c148 -108 359 -230 670 -386 918 -460 2120 -861 2527 -844 l92 4 -36 -24
c-46 -32 -122 -64 -208 -90 -67 -19 -102 -27 -240 -52 -94 -17 -406 -24 -556
-12 -107 9 -369 47 -375 55 -1 1 -13 25 -27 52 -42 83 -114 135 -187 135 -16
0 -30 4 -30 9 0 35 -104 111 -152 111 -14 0 -40 19 -70 50 -30 31 -73 62 -111
80 -34 16 -77 45 -96 65 -63 68 -162 99 -237 75 -41 -13 -153 -85 -167 -107
-4 -7 -13 -13 -20 -13 -15 0 -246 168 -334 244 -38 32 -123 112 -191 179 -220
218 -365 416 -447 612 l-17 40 59 -56 c32 -31 101 -88 153 -127z m2960 103 c0
-5 -5 -3 -10 5 -5 8 -10 20 -10 25 0 6 5 3 10 -5 5 -8 10 -19 10 -25z m7 -37
c-3 -8 -6 -5 -6 6 -1 11 2 17 5 13 3 -3 4 -12 1 -19z m20 -70 c-3 -8 -6 -5 -6
6 -1 11 2 17 5 13 3 -3 4 -12 1 -19z m-2896 -25 c13 -16 12 -17 -3 -4 -10 7
-18 15 -18 17 0 8 8 3 21 -13z m1466 2 c26 -18 36 -47 68 -200 28 -136 31
-211 11 -306 -15 -69 -54 -156 -79 -177 -11 -10 -50 3 -194 62 -99 40 -228 95
-286 122 -122 55 -124 58 -87 156 37 100 151 203 310 283 145 73 215 89 257
60z m1146 -18 c45 -60 96 -189 121 -311 l12 -61 -62 -58 c-35 -32 -84 -90
-110 -130 -26 -40 -49 -73 -50 -75 -1 -2 -28 22 -60 54 -60 59 -140 115 -200
140 l-34 14 6 138 c6 128 8 139 32 164 34 36 145 109 207 136 74 32 107 29
138 -11z m294 1 c-3 -8 -6 -5 -6 6 -1 11 2 17 5 13 3 -3 4 -12 1 -19z m-2832
-33 l20 -16 -20 10 c-11 5 -29 17 -40 26 l-20 16 20 -10 c11 -5 29 -17 40 -26z
m2852 -212 c-2 -32 -3 -6 -3 57 0 63 1 89 3 58 2 -32 2 -84 0 -115z m-1127 39
c127 -44 250 -122 337 -215 29 -30 55 -67 59 -83 9 -34 -18 -114 -49 -151 -31
-35 -129 -107 -202 -148 l-63 -35 -123 44 c-68 24 -149 54 -179 66 -30 12 -65
26 -77 31 l-23 8 36 65 c48 89 67 204 54 330 -5 50 -10 94 -10 98 0 24 162 17
240 -10z m-1385 -22 c3 -6 -1 -7 -9 -4 -18 7 -21 14 -7 14 6 0 13 -4 16 -10z
m2631 -230 c24 -41 44 -79 44 -85 0 -5 -18 22 -39 61 -22 39 -61 95 -87 125
l-48 54 43 -40 c24 -22 63 -74 87 -115z m-161 28 c59 -62 92 -121 131 -238 25
-73 29 -100 29 -195 0 -142 -22 -187 -116 -236 -43 -21 -75 -18 -271 27 -116
27 -136 37 -100 48 35 12 66 67 70 128 4 48 -1 67 -28 127 -18 39 -39 76 -46
82 -23 19 -16 40 32 114 56 86 96 129 153 166 65 42 86 38 146 -23z m-585 -50
c69 -34 208 -163 252 -233 43 -69 70 -154 63 -198 -8 -47 -73 -117 -107 -117
-45 0 -588 167 -587 180 0 3 32 25 70 49 81 50 184 141 204 182 25 47 29 103
11 137 -16 32 -16 32 7 32 13 0 52 -14 87 -32z m814 -128 c5 -17 4 -20 -2 -10
-5 8 -13 26 -16 40 -5 17 -4 20 2 10 5 -8 13 -26 16 -40z m23 -92 c-3 -7 -5
-2 -5 12 0 14 2 19 5 13 2 -7 2 -19 0 -25z m3971 15 c-21 -2 -55 -2 -75 0 -21
2 -4 4 37 4 41 0 58 -2 38 -4z m131 -31 c23 -22 29 -40 35 -95 3 -37 3 -75 -2
-85 -19 -35 12 -212 64 -364 19 -56 34 -110 34 -119 0 -9 15 -28 34 -42 76
-58 107 -195 101 -437 -3 -126 -8 -167 -25 -220 -24 -71 -53 -131 -81 -170
-16 -21 -17 -31 -8 -64 6 -22 9 -70 7 -108 -3 -57 -8 -72 -32 -97 -29 -30
-100 -56 -132 -48 -13 3 -11 5 8 6 42 2 105 30 121 54 22 34 29 110 17 177
-10 55 -9 63 10 90 35 49 77 152 89 215 6 32 11 124 11 204 0 226 -24 325 -96
390 -19 17 -34 38 -34 45 0 8 -14 54 -30 103 -58 168 -72 247 -71 383 1 142
-8 176 -53 196 -20 9 -25 13 -13 14 10 0 31 -12 46 -28z m-4092 -24 c-3 -8 -6
-5 -6 6 -1 11 2 17 5 13 3 -3 4 -12 1 -19z m4051 -34 c5 -9 7 -25 5 -35 -3
-11 1 -26 8 -35 10 -13 10 -17 -1 -24 -14 -9 -9 -78 17 -251 l5 -36 -49 -7
c-51 -7 -83 -17 -150 -47 -24 -11 -52 -19 -64 -19 -18 0 -20 4 -14 28 28 109
37 170 40 257 4 122 8 135 46 135 24 0 29 4 29 25 0 24 3 25 60 25 44 0 61 -4
68 -16z m-3853 -44 c3 -6 -1 -7 -9 -4 -18 7 -21 14 -7 14 6 0 13 -4 16 -10z
m-2358 -60 c57 -34 57 -46 3 -156 -44 -88 -62 -141 -84 -249 -5 -23 0 -18 25
25 41 72 91 134 153 193 64 59 89 67 122 36 29 -27 30 -39 5 -87 -29 -57 -69
-182 -76 -237 l-7 -50 39 64 c40 66 142 184 174 202 25 13 54 -3 73 -40 13
-24 13 -39 0 -114 -8 -48 -14 -111 -12 -139 l3 -53 26 50 c32 60 103 156 124
168 8 4 24 6 34 2 30 -9 71 -123 71 -196 0 -34 -3 -38 -47 -57 -158 -66 -285
-63 -518 14 -158 52 -265 104 -315 154 -42 42 -43 43 -37 99 8 68 37 160 83
261 48 103 48 103 75 117 33 17 49 16 86 -7z m2840 -26 c-3 -3 -12 -4 -19 -1
-8 3 -5 6 6 6 11 1 17 -2 13 -5z m-702 -86 c54 -60 59 -103 15 -125 -30 -15
-196 -17 -205 -3 -3 6 0 10 8 10 28 0 97 78 109 125 7 25 15 45 19 45 4 0 28
-23 54 -52z m770 -81 c50 -14 114 -34 144 -44 70 -25 81 -47 14 -27 -106 33
-195 46 -333 51 -108 4 -151 10 -169 22 l-24 15 24 8 c51 15 251 1 344 -25z
m-972 -74 c-7 -2 -21 -2 -30 0 -10 3 -4 5 12 5 17 0 24 -2 18 -5z m1458 -3
c30 -6 85 -20 122 -32 65 -20 71 -25 122 -93 53 -70 121 -139 180 -182 45 -33
15 -28 -36 6 -72 48 -125 98 -174 164 -54 71 -65 75 -221 76 l-90 1 -17 35
-17 35 39 0 c21 0 63 -5 92 -10z m-1378 -7 c-7 -2 -21 -2 -30 0 -10 3 -4 5 12
5 17 0 24 -2 18 -5z m85 0 c-10 -2 -26 -2 -35 0 -10 3 -2 5 17 5 19 0 27 -2
18 -5z m1852 -121 c111 -34 154 -43 270 -61 l112 -16 -53 -29 c-137 -75 -326
-28 -468 118 l-44 45 59 -18 c32 -11 88 -28 124 -39z m2298 -26 c15 -51 27
-76 39 -79 10 -3 -16 -4 -57 -4 l-74 2 -22 70 c-25 80 -23 83 51 84 l41 1 22
-74z m-1403 24 c-3 -5 -12 -10 -18 -10 -7 0 -6 4 3 10 19 12 23 12 15 0z
m-118 -46 c-3 -3 -12 -4 -19 -1 -8 3 -5 6 6 6 11 1 17 -2 13 -5z m-22 -34 c3
-6 -1 -7 -9 -4 -18 7 -21 14 -7 14 6 0 13 -4 16 -10z m55 -36 c0 -2 -9 0 -20
6 -11 6 -20 13 -20 16 0 2 9 0 20 -6 11 -6 20 -13 20 -16z m65 -39 l20 -16
-20 10 c-11 5 -29 17 -40 26 l-20 16 20 -10 c11 -5 29 -17 40 -26z m-1550 -5
c175 -47 287 -125 342 -238 75 -153 -9 -362 -145 -362 -48 0 -105 28 -116 57
-10 25 -2 25 34 -2 72 -53 158 -23 200 71 24 52 26 83 3 36 -21 -43 -54 -65
-90 -59 l-28 4 31 2 c37 1 56 21 79 79 30 75 4 183 -59 241 -14 13 -23 27 -21
31 3 4 -3 7 -13 6 -9 0 -16 5 -14 12 1 8 -2 11 -8 7 -5 -3 -18 -1 -27 5 -17
11 -17 11 0 6 32 -10 17 4 -30 28 -79 39 -194 66 -322 75 -204 14 -371 -15
-526 -91 -92 -45 -158 -93 -270 -198 -81 -75 -67 -54 35 53 127 134 265 208
475 253 96 21 370 12 470 -16z m2810 17 c-46 -27 -102 -95 -109 -131 -7 -39
16 -140 34 -151 6 -3 10 -25 10 -48 0 -23 9 -62 20 -86 11 -24 19 -60 19 -80
-1 -23 -3 -28 -6 -13 -4 20 -10 22 -78 22 l-74 0 -8 38 c-10 47 -10 365 0 414
l8 37 97 4 c53 1 99 3 102 4 3 1 -4 -4 -15 -10z m-1210 -45 c-3 -3 -11 0 -18
7 -9 10 -8 11 6 5 10 -3 15 -9 12 -12z m-1782 1 c-18 -2 -48 -2 -65 0 -18 2
-4 4 32 4 36 0 50 -2 33 -4z m-180 -10 c-7 -2 -19 -2 -25 0 -7 3 -2 5 12 5 14
0 19 -2 13 -5z m290 0 c-7 -2 -21 -2 -30 0 -10 3 -4 5 12 5 17 0 24 -2 18 -5z
m1720 0 c-7 -2 -19 -2 -25 0 -7 3 -2 5 12 5 14 0 19 -2 13 -5z m-1666 -9 c-3
-3 -12 -4 -19 -1 -8 3 -5 6 6 6 11 1 17 -2 13 -5z m1649 -134 l40 0 0 -42 c0
-24 13 -77 28 -118 15 -41 32 -110 38 -153 10 -71 13 -78 37 -83 29 -6 66 -18
95 -30 17 -7 18 -4 12 42 -13 92 -48 247 -67 288 -10 22 -16 42 -14 45 3 2 27
-18 55 -46 62 -62 141 -105 244 -133 77 -22 211 -31 285 -20 l35 5 -3 -56 c-5
-109 30 -236 92 -340 31 -51 33 -59 29 -126 l-4 -72 -37 3 c-20 1 -43 -1 -51
-5 -49 -25 -116 -54 -124 -54 -5 0 -13 -12 -16 -26 -4 -14 -13 -36 -20 -48
-10 -19 -14 -21 -22 -10 -8 11 -9 10 -4 -4 6 -20 -12 -67 -27 -67 -6 0 -7 -3
-4 -6 3 -4 1 -16 -5 -28 -7 -11 -11 -25 -10 -29 1 -4 -5 -10 -13 -13 -9 -4
-15 -19 -15 -39 0 -18 -6 -38 -13 -44 -17 -14 -44 -93 -49 -148 -3 -26 -11
-29 -30 -10 -7 6 -19 12 -25 13 -7 1 -22 2 -33 3 -28 2 -25 16 4 16 13 0 22
-3 19 -7 -2 -5 1 -8 6 -8 6 0 11 5 11 11 0 5 6 7 13 4 6 -4 4 0 -6 9 -11 8
-26 12 -35 8 -14 -5 -15 -3 -5 10 7 8 10 17 8 20 -3 3 -1 17 4 31 9 23 8 25
-10 22 -17 -4 -19 -2 -9 10 10 13 8 15 -14 15 -14 0 -26 5 -26 11 0 6 7 8 16
5 17 -7 54 19 54 37 0 6 -8 3 -18 -6 -10 -10 -22 -14 -25 -10 -10 9 12 33 30
33 9 0 13 6 9 15 -4 13 -2 13 14 5 26 -14 28 -13 41 13 9 18 9 20 -2 10 -18
-17 -29 -16 -29 3 0 8 -5 12 -11 9 -6 -4 -24 -8 -40 -9 -27 -2 -28 -1 -14 13
14 14 17 14 25 1 8 -13 10 -12 10 3 0 12 4 16 13 10 6 -4 4 5 -6 21 -20 30
-16 59 7 54 8 -2 21 6 29 16 13 18 12 22 -7 37 l-21 17 25 22 c23 19 23 20 3
10 -13 -6 -27 -19 -33 -30 -6 -11 -23 -26 -39 -35 -58 -29 -288 -322 -394
-501 -4 -7 8 -8 36 -4 187 26 407 -138 407 -303 0 -51 -6 -65 -147 -351 -29
-60 -74 -158 -99 -218 -48 -114 -71 -145 -31 -42 30 75 40 96 153 334 51 107
95 210 99 227 10 47 -18 132 -59 179 -20 23 -33 44 -30 47 3 3 -1 5 -8 4 -7
-1 -39 11 -70 27 -32 15 -86 31 -120 35 -50 7 -55 9 -23 10 50 1 133 -21 170
-45 16 -11 26 -13 21 -6 -13 21 -85 53 -155 67 -70 15 -128 11 -173 -11 -15
-8 -30 -14 -33 -14 -17 0 153 257 262 397 60 77 127 150 200 217 18 15 37 42
42 60 11 30 11 31 -7 10 -9 -11 -34 -32 -54 -47 -81 -59 -323 -388 -487 -662
-81 -135 -114 -177 -56 -70 142 257 380 590 514 718 62 58 82 84 91 117 20 74
-10 159 -79 224 -17 16 -28 32 -26 36 3 4 -3 7 -13 6 -9 0 -16 5 -14 12 1 8
-1 11 -6 8 -5 -3 -31 3 -58 14 -27 10 -43 19 -36 20 7 0 28 -7 47 -14 19 -8
35 -13 35 -11 0 13 -88 46 -147 56 -87 15 -130 4 -220 -57 l-68 -45 58 55 c38
37 71 59 100 67 23 6 47 13 54 15 15 4 10 41 -24 187 -17 74 -33 117 -50 137
-13 16 -80 62 -149 101 -113 66 -135 84 -118 102 3 3 57 -25 119 -64 89 -54
120 -69 151 -69z m91 134 c-3 -3 -12 -4 -19 -1 -8 3 -5 6 6 6 11 1 17 -2 13
-5z m1382 -19 c52 -45 65 -105 66 -310 0 -194 -9 -243 -59 -330 -40 -68 -45
-69 -115 -34 -69 34 -98 68 -83 95 10 19 113 64 146 64 41 0 -6 19 -79 31 -75
12 -105 30 -105 63 0 28 61 67 175 113 32 12 -61 16 -130 4 -64 -10 -85 0 -85
41 0 24 76 78 153 108 l62 25 -45 3 c-40 3 -140 -11 -175 -25 -20 -7 -48 53
-38 82 4 13 30 40 58 60 48 34 53 35 137 35 78 0 89 -2 117 -25z m-3072 9 c-3
-3 -12 -4 -19 -1 -8 3 -5 6 6 6 11 1 17 -2 13 -5z m1780 -31 c58 -36 211 -169
167 -145 -11 6 -47 36 -79 66 -33 31 -84 69 -115 85 -30 17 -50 31 -44 31 6 0
38 -17 71 -37z m-5695 -35 l61 -41 -7 -82 c-7 -103 -16 -146 -27 -139 -10 6
-99 -43 -116 -64 -11 -13 -13 3 -13 84 1 130 26 330 37 296 3 -7 32 -31 65
-54z m2075 56 c-3 -3 -12 -4 -19 -1 -8 3 -5 6 6 6 11 1 17 -2 13 -5z m1943
-24 c8 -5 11 -10 5 -10 -5 0 -17 5 -25 10 -8 5 -10 10 -5 10 6 0 17 -5 25 -10z
m-220 -45 c155 -24 222 -49 290 -111 44 -40 60 -90 41 -130 l-11 -25 -24 29
c-46 54 -155 67 -267 32 -195 -60 -411 -256 -683 -620 -101 -134 -100 -133
-82 -83 9 24 11 45 6 48 -9 6 -6 77 4 94 4 5 1 22 -4 37 -7 16 -7 30 -2 33 5
3 8 50 6 104 -2 62 0 96 6 92 6 -3 10 1 10 10 0 9 -5 13 -11 9 -8 -5 -8 -1 0
14 14 26 14 42 0 22 -9 -12 -9 -11 -4 5 13 36 12 60 -4 73 -13 10 -13 12 -1
10 11 -2 15 10 16 49 2 29 -1 55 -5 58 -14 8 -34 -24 -36 -56 -1 -16 -4 -32
-8 -35 -4 -4 -7 -17 -7 -28 0 -16 2 -18 9 -7 7 10 9 7 8 -12 -1 -14 -5 -23 -9
-20 -13 7 -9 -32 5 -46 10 -11 10 -14 0 -18 -20 -7 -16 -53 5 -54 14 0 14 -2
2 -7 -18 -8 -22 -39 -9 -64 7 -14 6 -18 -6 -18 -18 0 -21 -30 -2 -31 10 0 10
-2 0 -6 -7 -2 -13 -12 -13 -21 0 -15 2 -15 10 -2 8 12 10 9 10 -13 0 -16 -4
-26 -10 -22 -9 6 -15 -18 -10 -40 1 -5 4 -27 6 -48 2 -21 7 -43 10 -49 5 -7 2
-8 -6 -3 -9 6 -12 4 -8 -6 8 -22 18 -65 12 -51 -3 6 -10 10 -14 7 -5 -3 -12 0
-16 6 -5 8 -3 9 6 4 9 -5 11 -4 6 3 -4 7 -13 12 -21 12 -12 0 -12 -4 0 -27 8
-16 16 -36 19 -45 4 -12 11 -16 23 -11 16 6 16 5 3 -8 -8 -9 -73 -107 -144
-220 -71 -112 -144 -227 -163 -256 -18 -28 -33 -54 -33 -57 0 -3 -13 -24 -29
-48 -99 -149 -486 -870 -738 -1378 -117 -234 -216 -420 -243 -456 -63 -82
-115 -177 -141 -259 l-23 -68 -105 6 c-166 10 -319 69 -442 171 -110 90 -165
182 -180 300 -19 143 29 529 121 987 50 247 150 713 170 794 51 203 90 469 89
615 0 303 -111 391 -358 283 -263 -114 -629 -576 -776 -978 -10 -27 -22 -54
-26 -60 -8 -12 -52 -155 -80 -262 -13 -52 -22 -127 -26 -223 -5 -128 -3 -154
15 -219 27 -93 61 -138 137 -176 74 -37 169 -40 258 -9 31 12 57 17 57 12 0
-17 -64 -69 -115 -92 -80 -39 -162 -57 -280 -63 -270 -14 -470 82 -565 272
-35 68 -35 70 -35 200 0 135 10 194 61 365 52 175 183 467 268 596 146 223
236 335 377 469 296 281 607 425 922 425 185 0 314 -45 413 -144 79 -79 118
-157 146 -293 28 -136 21 -409 -16 -633 -35 -213 -105 -560 -166 -820 -17 -74
-37 -171 -45 -215 -42 -244 -54 -319 -65 -402 -16 -117 -8 -321 14 -383 16
-43 42 -80 56 -80 4 0 40 71 80 158 68 145 101 215 258 547 65 138 423 850
472 940 18 33 48 89 68 125 101 189 266 476 327 570 23 36 68 105 99 154 88
137 285 393 375 487 45 46 81 86 81 90 0 12 139 110 190 133 143 65 327 88
500 61z m-2390 -49 c0 -2 -8 -10 -17 -17 -16 -13 -17 -12 -4 4 13 16 21 21 21
13z m4505 -74 c-3 -3 -11 0 -18 7 -9 10 -8 11 6 5 10 -3 15 -9 12 -12z m-4725
-25 c193 -53 302 -128 399 -272 71 -106 99 -182 127 -338 17 -97 14 -315 -7
-497 -12 -110 -58 -386 -69 -425 -6 -16 -28 -123 -50 -238 -23 -114 -47 -229
-55 -255 -14 -47 -85 -377 -91 -421 -1 -13 -7 -28 -12 -33 -11 -11 7 123 37
275 23 116 24 123 16 115 -19 -19 -97 -483 -118 -708 -3 -25 -4 -21 -5 16 -3
85 56 473 102 666 14 59 51 231 110 513 83 393 111 617 103 840 -9 233 -52
381 -146 499 -17 21 -29 42 -26 46 3 4 -3 14 -13 21 -16 13 -16 13 -2 -6 10
-13 2 -10 -22 9 -21 16 -35 32 -32 37 8 14 -111 86 -179 108 -95 31 -170 41
-296 41 -305 0 -582 -107 -881 -339 -107 -82 -288 -264 -370 -370 -34 -45 -64
-81 -66 -81 -9 0 34 59 112 155 247 304 588 543 886 621 172 45 424 54 548 21z
m4770 13 c8 -5 11 -10 5 -10 -5 0 -17 5 -25 10 -8 5 -10 10 -5 10 6 0 17 -5
25 -10z m117 -36 c-3 -3 -12 -4 -19 -1 -8 3 -5 6 6 6 11 1 17 -2 13 -5z m106
-11 c-13 -2 -35 -2 -50 0 -16 2 -5 4 22 4 28 0 40 -2 28 -4z m-5255 -10 c-10
-2 -26 -2 -35 0 -10 3 -2 5 17 5 19 0 27 -2 18 -5z m195 0 c-7 -2 -21 -2 -30
0 -10 3 -4 5 12 5 17 0 24 -2 18 -5z m70 -10 c-7 -2 -21 -2 -30 0 -10 3 -4 5
12 5 17 0 24 -2 18 -5z m44 -9 c-3 -3 -12 -4 -19 -1 -8 3 -5 6 6 6 11 1 17 -2
13 -5z m141 -55 c30 -17 51 -33 48 -36 -3 -4 -14 1 -23 9 -10 9 -36 25 -58 36
-22 12 -35 21 -30 21 6 1 34 -13 63 -30z m1452 28 c0 -2 -10 -12 -21 -23 -22
-19 -22 -19 -8 4 12 19 29 30 29 19z m1099 -47 c-37 -5 -88 -18 -114 -29 -56
-25 -72 -27 -30 -4 49 27 107 42 160 41 47 -1 47 -1 -16 -8z m721 -235 c0 -82
7 -206 14 -275 8 -69 12 -128 10 -131 -2 -3 14 -11 36 -18 80 -24 216 -162
224 -228 2 -16 9 -47 16 -69 6 -21 10 -59 8 -84 l-5 -45 -1 52 c-2 63 -31 132
-83 200 -52 66 -101 104 -159 119 -25 7 -35 13 -23 13 12 1 34 -4 50 -9 26
-10 27 -9 8 5 -11 9 -37 20 -59 26 -54 15 -98 0 -178 -58 -47 -34 -57 -39 -38
-18 63 71 113 104 163 105 27 0 27 1 22 53 -15 144 -29 639 -15 562 4 -27 9
-117 10 -200z m-901 181 c-2 -2 -33 -25 -69 -51 -126 -91 -305 -288 -487 -535
-86 -117 -313 -459 -313 -471 0 -5 -4 -9 -10 -9 -27 0 319 502 485 705 95 116
268 285 339 333 43 28 69 41 55 28z m166 -34 c-6 -5 -35 -14 -65 -21 -91 -20
-183 -82 -315 -215 -67 -67 -145 -149 -174 -183 l-53 -63 30 0 c42 0 159 -37
209 -67 23 -13 59 -43 81 -67 103 -112 107 -206 14 -356 -26 -41 -46 -78 -45
-81 1 -3 -12 -19 -29 -35 -30 -28 -29 -25 17 61 84 154 95 178 95 198 0 12
-12 -3 -28 -34 -15 -30 -52 -92 -82 -139 -29 -47 -58 -94 -64 -105 -56 -99
-129 -185 -159 -185 -7 0 3 9 21 20 19 12 56 56 88 107 31 49 64 99 73 113 53
80 130 219 136 247 10 52 -11 107 -63 159 -26 27 -40 44 -32 39 9 -6 7 -1 -5
9 -43 41 -145 79 -221 84 -41 3 -74 8 -74 13 0 19 164 210 256 299 152 147
254 208 349 209 27 1 45 -3 40 -7z m2546 -117 c6 -36 9 -70 7 -77 -7 -21 -37
81 -43 147 l-6 60 15 -33 c9 -19 21 -62 27 -97z m-3751 111 c0 -2 -8 -10 -17
-17 -16 -13 -17 -12 -4 4 13 16 21 21 21 13z m2978 -123 c-16 -2 -40 -2 -55 0
-16 2 -3 4 27 4 30 0 43 -2 28 -4z m72 -114 c79 -35 140 -107 140 -167 0 -22
-12 -39 -54 -75 -176 -151 -519 -670 -737 -1112 -69 -140 -161 -356 -155 -362
2 -2 30 34 63 79 191 263 377 472 487 549 62 44 75 49 122 49 122 0 244 -90
244 -182 0 -12 -47 -120 -104 -238 -57 -118 -120 -258 -140 -310 -20 -52 -43
-109 -50 -125 -18 -42 -50 -185 -42 -192 19 -20 203 141 314 275 91 111 220
316 263 419 59 141 138 299 161 320 23 21 104 23 162 4 52 -18 116 -77 116
-107 0 -14 -49 -124 -109 -247 -168 -342 -227 -527 -187 -582 13 -19 15 -18
54 8 23 14 71 64 108 109 74 93 245 348 319 478 63 111 72 120 111 120 23 0
38 -7 53 -26 l21 -27 -52 -96 c-161 -300 -344 -574 -475 -712 l-54 -57 -36 19
c-79 40 -163 17 -197 -56 -19 -40 -20 -40 -72 -19 -87 35 -144 124 -128 197 6
29 -2 23 -77 -57 -46 -49 -110 -109 -142 -132 l-57 -43 -78 36 c-56 25 -91 50
-128 89 -42 46 -56 54 -86 54 -21 0 -50 -10 -71 -24 l-36 -25 -7 34 c-13 73
41 291 132 523 25 63 43 119 42 124 -4 11 -101 -95 -190 -207 -99 -125 -339
-466 -376 -534 -7 -14 -27 -45 -45 -70 -18 -25 -48 -76 -67 -113 -32 -62 -50
-83 -50 -59 0 16 -102 61 -137 61 -50 0 -100 -25 -121 -60 l-19 -30 -26 21
c-17 13 -27 30 -27 47 0 36 50 175 170 477 4 11 46 110 93 220 47 110 84 201
82 203 -8 8 -399 -263 -479 -332 l-40 -34 42 -68 c63 -106 74 -140 74 -226 0
-69 -22 -169 -41 -190 -3 -4 -14 -1 -23 6 -15 11 -16 18 -7 51 22 79 -22 144
-129 192 -58 26 -98 29 -137 11 -20 -9 -28 -9 -34 0 -5 8 -57 -38 -152 -131
-140 -137 -218 -232 -254 -308 l-17 -36 -43 16 c-42 15 -42 15 -37 56 5 51
-29 136 -66 166 l-26 20 55 55 c63 65 219 202 334 294 44 35 84 67 88 71 5 4
4 15 -1 25 -14 26 -173 238 -181 242 -3 1 -26 -31 -51 -70 -84 -138 -251 -362
-371 -498 -63 -72 -69 -76 -128 -88 l-61 -13 -33 31 c-17 17 -67 48 -109 70
-79 39 -129 50 -270 58 -25 2 -26 4 -21 40 8 53 69 270 108 376 89 251 270
622 323 664 25 19 124 15 189 -10 66 -24 133 -84 133 -118 0 -13 -21 -59 -46
-103 -91 -157 -243 -474 -278 -579 -40 -118 -49 -214 -21 -224 68 -27 229 149
492 538 l93 138 0 67 c0 205 131 446 317 584 71 53 124 66 207 51 65 -12 165
-53 221 -91 l30 -20 73 98 c77 104 250 281 274 281 27 0 108 -62 137 -104 79
-115 79 -139 5 -196 -127 -99 -294 -302 -381 -466 -38 -72 -47 -98 -51 -155
-5 -79 -9 -81 -81 -44 -50 25 -90 65 -118 118 -24 47 -13 135 31 241 20 49 36
90 34 91 -2 2 -16 1 -33 -3 -42 -8 -136 -105 -173 -178 -86 -170 -102 -403
-36 -524 15 -28 31 -50 36 -50 4 0 110 69 235 153 250 167 367 236 456 269
l58 21 61 131 c135 285 306 611 402 766 57 91 144 220 180 265 131 166 189
190 316 134z m-4803 -5 c-3 -3 -12 -4 -19 -1 -8 3 -5 6 6 6 11 1 17 -2 13 -5z
m-117 -38 c0 -2 -28 -22 -62 -45 -214 -139 -469 -482 -618 -826 -11 -27 -25
-59 -30 -70 -40 -88 -98 -319 -104 -412 -2 -43 -3 -64 0 -48 50 331 197 673
414 963 149 200 377 392 465 392 25 0 17 -19 -11 -26 -45 -11 -171 -101 -254
-180 -135 -129 -287 -345 -391 -554 -62 -127 -81 -177 -69 -185 6 -3 17 -32
26 -63 18 -66 80 -269 99 -327 26 -78 26 -91 2 -126 -12 -18 -37 -39 -55 -46
l-33 -13 -18 44 c-25 56 -81 220 -81 234 0 6 -5 23 -11 39 -9 23 -12 25 -19
12 -28 -49 -42 -289 -21 -366 19 -68 102 -84 201 -37 66 31 116 33 167 7 98
-51 123 -157 65 -275 -41 -84 -101 -139 -205 -189 -304 -145 -716 -106 -938
90 -48 42 -126 147 -117 157 3 3 16 -10 29 -28 75 -108 221 -205 375 -250 68
-20 102 -23 239 -23 185 0 261 15 390 75 128 59 203 141 221 241 5 30 3 28
-21 -19 -15 -29 -46 -67 -68 -86 -41 -33 -118 -76 -134 -76 -4 1 15 13 44 28
29 15 69 43 89 62 48 45 88 131 79 168 -8 33 -43 72 -64 73 -10 0 -11 3 -4 5
7 3 21 0 32 -6 34 -17 24 -2 -11 20 -44 26 -107 25 -166 -2 -50 -24 -137 -30
-182 -14 -23 8 -24 8 -10 -10 8 -11 2 -8 -13 6 -17 15 -26 31 -24 42 3 10 1
16 -3 13 -5 -3 -13 9 -19 27 -48 158 7 460 139 758 150 340 392 659 610 806
66 45 70 47 70 40z m6068 -121 c3 -74 -4 -79 -100 -83 -82 -2 -82 -2 -49 13
l34 15 -6 73 c-3 39 -8 80 -12 89 -5 13 11 8 62 -20 l68 -37 3 -50z m-3868 39
c0 -8 -5 -12 -10 -9 -6 4 -8 11 -5 16 9 14 15 11 15 -7z m3897 -16 c-3 -8 -6
-5 -6 6 -1 11 2 17 5 13 3 -3 4 -12 1 -19z m3 -125 c-11 -17 -11 -17 -6 0 3
10 7 35 8 55 l1 37 4 -37 c2 -21 -1 -46 -7 -55z m-263 -58 c152 -69 223 -185
190 -311 -13 -49 -132 -270 -208 -387 -32 -49 -37 -61 -29 -83 16 -41 13 -134
-5 -140 -24 -9 -211 -393 -266 -544 -15 -42 -35 -67 -24 -30 19 66 88 224 178
404 94 189 99 203 95 251 -3 32 -13 64 -27 83 -21 30 -17 44 5 22 7 -7 15 -5
26 7 19 22 215 363 224 389 8 27 -20 -19 -115 -183 -76 -132 -125 -193 -154
-193 -7 0 3 10 20 23 21 14 63 75 118 169 105 181 135 243 135 286 0 43 -33
106 -70 133 -16 12 -27 26 -24 30 2 4 -1 11 -7 15 -8 4 -9 3 -5 -4 10 -16 1
-15 -37 4 -17 9 -65 20 -107 25 l-75 8 75 -3 c41 -2 84 -7 95 -11 14 -6 17 -5
10 3 -6 6 -39 19 -75 28 -84 21 -146 14 -218 -27 l-57 -32 30 32 c68 74 188
88 302 36z m-3264 18 c-7 -2 -19 -2 -25 0 -7 3 -2 5 12 5 14 0 19 -2 13 -5z
m123 -39 c18 -14 18 -14 -6 -3 -31 14 -36 19 -24 19 6 0 19 -7 30 -16z m2679
6 c3 -5 1 -10 -4 -10 -6 0 -11 5 -11 10 0 6 2 10 4 10 3 0 8 -4 11 -10z
m-2767 -82 c64 -22 142 -82 142 -109 0 -8 -24 -55 -54 -104 -30 -50 -83 -136
-117 -193 -34 -56 -71 -109 -82 -117 -26 -18 -105 -19 -160 -3 -22 7 -55 27
-74 45 -31 28 -34 36 -28 65 30 139 147 407 187 425 38 19 119 15 186 -9z
m3238 -46 c21 -11 52 -34 68 -51 36 -38 32 -64 -24 -155 -22 -37 -40 -68 -40
-70 0 -12 -112 -190 -127 -202 -40 -30 -153 -5 -197 44 -15 17 -18 31 -12 68
15 113 121 368 159 384 33 15 128 5 173 -18z m-793 -97 c-7 -21 -13 -19 -13 6
0 11 4 18 10 14 5 -3 7 -12 3 -20z m-40 -6 c4 -16 3 -18 -9 -8 -7 6 -11 15 -8
20 8 13 11 11 17 -12z m-1770 -14 c76 -16 177 -58 162 -67 -6 -3 -42 4 -82 17
-39 13 -103 27 -141 30 -113 12 -176 -15 -362 -151 -19 -15 -8 -1 25 30 79 76
152 123 217 140 68 19 98 19 181 1z m1664 -37 c-3 -7 -5 -2 -5 12 0 14 2 19 5
13 2 -7 2 -19 0 -25z m126 -3 c-19 -25 -33 -32 -33 -15 0 6 5 10 10 10 6 0 9
3 9 8 -3 16 2 22 16 22 14 0 13 -3 -2 -25z m-1805 -12 c-15 -2 -42 -2 -60 0
-18 2 -6 4 27 4 33 0 48 -2 33 -4z m59 -9 c-3 -3 -12 -4 -19 -1 -8 3 -5 6 6 6
11 1 17 -2 13 -5z m136 -45 c20 -11 37 -21 37 -24 0 -4 -111 44 -120 53 -9 9
45 -11 83 -29z m-1466 -220 c-35 -57 -75 -124 -89 -149 -14 -25 -50 -88 -80
-140 -30 -52 -71 -126 -93 -165 -21 -38 -59 -108 -85 -155 -96 -174 -215 -402
-394 -754 -47 -93 -89 -172 -92 -175 -34 -34 296 607 549 1064 114 208 339
587 344 582 2 -2 -25 -51 -60 -108z m2108 89 c-97 -69 -310 -318 -385 -450
-17 -32 -34 -58 -37 -58 -9 0 59 114 114 191 88 124 300 340 331 339 4 0 -6
-10 -23 -22z m1083 -115 c-10 -2 -26 -2 -35 0 -10 3 -2 5 17 5 19 0 27 -2 18
-5z m-2582 -244 c7 -61 -1 -84 -72 -209 -62 -110 -211 -412 -228 -464 -19 -57
-41 -97 -30 -56 17 68 161 383 194 425 8 11 56 97 103 185 39 73 34 142 -14
204 l-32 41 36 -35 c30 -29 37 -44 43 -91z m663 -205 c-6 -32 -9 -96 -7 -142
3 -52 1 -77 -4 -67 -13 22 -12 148 1 214 6 29 11 56 11 59 0 3 2 3 5 0 3 -2 0
-31 -6 -64z m401 -388 c0 -2 -40 -34 -90 -71 -49 -37 -90 -68 -90 -70 0 -2 14
-29 30 -60 17 -31 30 -64 29 -74 0 -9 -7 1 -15 23 -7 21 -23 54 -35 73 l-22
35 24 24 c20 19 158 122 167 124 1 0 2 -2 2 -4z m-5242 -79 c7 -16 8 -26 3
-23 -5 3 -14 20 -20 38 -13 38 0 26 17 -15z m4357 6 c-46 -72 -169 -244 -183
-255 -9 -7 9 21 39 62 31 41 76 108 102 148 26 39 49 72 53 72 3 0 -2 -12 -11
-27z m1461 -215 c-68 -101 -156 -237 -196 -303 -62 -102 -106 -167 -88 -130
52 106 386 615 404 615 2 0 -52 -82 -120 -182z m-4879 -34 c-3 -3 -12 -4 -19
-1 -8 3 -5 6 6 6 11 1 17 -2 13 -5z m-110 -20 c-3 -3 -12 -4 -19 -1 -8 3 -5 6
6 6 11 1 17 -2 13 -5z m4012 -117 c51 -26 71 -50 56 -71 -6 -8 -36 -50 -68
-95 -106 -147 -209 -377 -288 -641 -22 -74 -69 -311 -69 -351 0 -29 -15 -39
-58 -39 -15 0 -47 -9 -71 -20 -23 -11 -48 -17 -53 -14 -10 7 -4 139 9 194 4
17 -11 4 -45 -42 -28 -36 -75 -90 -104 -119 -50 -50 -56 -52 -111 -55 -37 -1
-71 -10 -93 -24 -24 -14 -40 -17 -48 -11 -6 5 -29 11 -50 13 -58 5 -80 39 -84
132 -5 92 16 190 69 315 74 178 185 338 262 378 39 20 100 12 167 -22 81 -41
84 -59 39 -199 -66 -202 -168 -307 -289 -294 -32 3 -34 1 -46 -46 -12 -46 -17
-100 -15 -153 1 -17 7 -23 25 -23 68 0 260 222 356 410 18 36 39 72 46 80 7 9
27 56 44 105 96 273 244 561 312 609 25 18 42 15 107 -17z m1295 -2 c28 -43
60 -67 134 -101 106 -49 158 -88 171 -126 30 -93 24 -137 -54 -413 -36 -128
-75 -317 -75 -365 0 -41 20 -80 42 -80 25 0 22 -17 -7 -36 -16 -10 -34 -14
-50 -10 -22 6 -25 11 -25 54 0 63 -25 92 -80 92 -38 0 -40 1 -40 33 0 35 45
211 109 431 42 141 50 215 30 259 -10 23 -56 57 -77 57 -5 0 -12 -30 -16 -66
-20 -194 -149 -524 -262 -668 -55 -70 -99 -90 -178 -82 -81 8 -196 64 -233
113 -27 35 -28 41 -27 147 1 128 21 209 86 344 80 166 178 262 250 246 62 -13
138 -57 145 -82 16 -64 -58 -248 -134 -332 -48 -53 -97 -75 -149 -67 -33 6
-33 5 -40 -39 -14 -93 14 -168 68 -188 42 -15 90 24 157 125 100 152 190 388
191 499 0 40 -29 93 -59 110 -40 21 -15 102 46 150 34 27 57 25 77 -5z m436
-38 c-25 -23 -58 -53 -75 -65 -18 -14 -25 -26 -19 -30 14 -9 37 -52 31 -58 -2
-3 -14 12 -26 32 -13 22 -18 41 -13 46 21 21 137 117 142 117 3 0 -15 -19 -40
-42z m-3035 -17 c70 -24 157 -81 185 -121 l20 -27 58 20 c35 13 82 21 122 21
101 1 155 -35 163 -110 5 -43 -8 -68 -19 -38 -20 52 -130 55 -226 7 l-53 -27
-2 -70 c-6 -208 -99 -450 -276 -715 -88 -132 -143 -198 -270 -329 -169 -172
-331 -290 -509 -368 -199 -87 -341 -75 -397 34 -30 59 -4 206 60 342 77 162
151 262 343 463 98 103 124 137 139 180 87 250 140 397 149 415 27 54 -10 27
-135 -98 -199 -199 -317 -370 -317 -459 0 -43 8 -51 60 -60 l35 -7 -48 -22
c-109 -51 -224 25 -220 144 8 252 516 757 848 842 69 18 214 9 290 -17z m3515
15 c15 -8 30 -20 32 -27 6 -17 -50 -286 -72 -343 -19 -50 -10 -46 80 34 49 45
97 81 105 81 21 0 20 -59 -2 -89 -9 -13 -35 -40 -57 -59 -23 -20 -77 -72 -121
-117 -72 -73 -84 -92 -124 -186 -138 -326 -288 -546 -387 -565 -66 -12 -148
52 -146 115 2 70 96 204 306 434 64 70 116 128 116 129 0 2 14 43 30 91 17 49
30 92 30 95 0 4 -16 -19 -35 -51 -50 -83 -111 -165 -163 -219 -37 -38 -53 -48
-79 -48 -49 0 -101 25 -115 54 -22 50 69 345 145 469 26 43 32 47 67 47 26 0
48 -8 66 -23 l26 -23 -51 -104 c-54 -112 -91 -210 -91 -243 0 -19 1 -20 20 -2
35 32 208 330 290 500 32 67 69 82 130 50z m-1207 -42 c-7 -2 -21 -2 -30 0
-10 3 -4 5 12 5 17 0 24 -2 18 -5z m840 -30 c-13 -2 -33 -2 -45 0 -13 2 -3 4
22 4 25 0 35 -2 23 -4z m84 -29 l28 -26 -30 20 c-16 10 -37 22 -45 25 -12 4
-12 6 2 6 9 1 30 -11 45 -25z m-1829 -80 c12 -8 22 -19 22 -24 0 -16 -81 -184
-97 -202 -21 -23 -75 -23 -103 0 -21 17 -21 19 -6 83 24 103 44 147 74 158 31
11 78 5 110 -15z m389 -55 c45 -17 91 -68 109 -122 19 -58 13 -126 -21 -225
-56 -165 -176 -398 -243 -471 -37 -41 -37 -41 -75 -29 -30 9 -54 9 -105 0 -36
-6 -69 -9 -72 -6 -3 3 -7 49 -10 102 l-5 97 -34 -55 c-83 -135 -137 -176 -216
-164 -54 8 -95 49 -95 95 0 74 85 382 133 479 21 43 24 45 70 48 55 4 97 -17
97 -47 0 -11 -13 -49 -30 -86 -40 -88 -86 -229 -95 -287 -8 -50 5 -69 31 -48
44 38 197 306 209 367 3 21 15 57 25 80 21 49 50 61 104 43 58 -19 60 -28 33
-122 -32 -107 -42 -152 -62 -268 -9 -52 -18 -103 -20 -112 -16 -81 115 128
184 294 85 204 95 361 26 418 -13 10 -13 15 -3 21 17 11 31 11 65 -2z m193
-29 c-6 -12 -14 -19 -17 -17 -2 3 1 15 7 27 6 12 14 19 17 17 2 -3 -1 -15 -7
-27z m-1107 -62 l-26 -66 -33 21 c-19 12 -34 24 -33 27 0 6 113 88 116 85 2
-1 -9 -31 -24 -67z m581 -11 c-27 -60 -44 -80 -20 -24 26 61 39 87 43 84 2 -2
-8 -29 -23 -60z m-1004 -14 c-1 -10 -14 -34 -30 -53 l-30 -34 0 52 c0 51 1 52
30 52 22 0 30 -5 30 -17z m1113 -20 c-7 -2 -19 -2 -25 0 -7 3 -2 5 12 5 14 0
19 -2 13 -5z m87 -34 c17 -13 18 -17 5 -10 -33 17 -51 31 -40 31 6 0 21 -10
35 -21z m-2451 -346 c-59 -87 -77 -110 -59 -73 16 32 99 150 106 150 3 0 -18
-35 -47 -77z m3002 38 c-8 -5 -10 -14 -6 -22 6 -11 5 -11 -5 -2 -14 12 -6 33
13 33 8 0 7 -3 -2 -9z m-4096 -112 c120 -90 272 -146 457 -169 117 -15 124
-35 9 -26 -92 7 -206 35 -292 71 -76 32 -226 130 -240 158 -13 23 -6 20 66
-34z m4760 -14 c-3 -26 -9 -45 -12 -42 -2 3 -1 26 2 52 4 25 10 44 12 41 3 -3
2 -26 -2 -51z m-1060 -102 c-26 -48 -52 -92 -57 -98 -6 -5 14 36 43 92 30 55
56 100 58 98 2 -2 -18 -44 -44 -92z m686 40 c-5 -10 -17 -27 -26 -38 -16 -19
-17 -19 -3 5 26 46 29 50 34 50 3 0 0 -8 -5 -17z m-3763 -20 c-10 -2 -28 -2
-40 0 -13 2 -5 4 17 4 22 1 32 -1 23 -4z m1371 -115 c-19 -36 -150 -228 -156
-228 -3 0 2 10 10 23 9 12 47 68 84 125 65 99 86 126 62 80z m2501 -18 c0 -16
5 -30 10 -30 6 0 10 14 10 30 0 20 5 30 15 30 10 0 15 -11 15 -35 0 -32 -3
-35 -29 -35 -64 0 -91 -11 -91 -37 0 -23 3 -25 35 -19 33 6 35 5 35 -19 0 -16
4 -24 11 -19 6 3 9 15 6 25 -3 11 -1 19 4 19 5 0 9 -13 9 -30 0 -26 -4 -30
-27 -30 -52 0 -73 -11 -73 -36 0 -20 5 -24 33 -24 30 0 32 -2 32 -32 0 -35
-14 -45 -68 -47 l-28 -1 2 108 c4 185 7 200 37 205 60 9 62 8 62 -23z m-180
-35 c0 -30 -3 -35 -23 -35 -20 0 -23 4 -19 30 3 22 0 30 -11 30 -19 0 -31 -84
-28 -206 2 -88 2 -91 -21 -97 -58 -16 -58 -17 -58 108 0 95 -3 115 -15 115
-11 0 -12 5 -5 26 6 14 8 30 5 34 -3 5 16 12 42 15 27 4 53 8 58 10 6 2 25 4
43 4 30 1 32 -1 32 -34z m58 -104 c-2 -110 -6 -137 -15 -129 -18 14 -18 239
-1 256 7 7 14 12 16 12 2 0 2 -63 0 -139z m-263 84 c0 -27 -4 -35 -17 -35 -14
0 -18 8 -18 35 0 27 4 35 18 35 13 0 17 -8 17 -35z m-65 -10 c0 -19 -4 -35
-10 -35 -11 0 -14 53 -3 63 11 12 13 8 13 -28z m-48 -9 c-4 -31 -8 -35 -36
-38 -23 -2 -32 -8 -34 -25 -3 -20 1 -23 32 -23 33 0 36 -2 36 -29 0 -26 -4
-30 -32 -33 -28 -2 -33 -7 -33 -28 0 -21 5 -26 30 -28 29 -3 31 -5 27 -37 -4
-31 -7 -33 -44 -37 -22 -2 -42 0 -45 5 -6 11 6 287 13 299 3 5 24 8 48 8 l42
0 -4 -34z m-109 16 c-7 -5 -12 -56 -15 -149 -3 -124 -5 -140 -18 -128 -10 11
-14 43 -15 129 0 98 3 117 19 135 11 12 24 21 30 21 7 0 7 -3 -1 -8z m-97
-299 c-3 -7 -15 -13 -27 -13 -21 0 -22 3 -15 61 3 34 6 101 6 150 0 75 2 88
18 91 15 3 17 -10 20 -136 1 -77 0 -146 -2 -153z m-62 257 c-1 -44 -14 -50
-14 -7 0 21 3 37 8 37 4 0 7 -14 6 -30z m-158 -144 c-7 -115 -12 -156 -22
-160 -11 -4 -14 23 -14 148 0 84 3 156 7 159 3 4 13 7 22 7 14 0 15 -16 7
-154z m86 93 c20 -30 40 -66 43 -81 4 -16 10 -28 13 -28 4 0 5 -26 3 -57 l-3
-57 -19 25 c-10 13 -34 56 -55 96 -28 56 -35 81 -32 112 2 23 0 43 -4 45 -5 3
-3 3 4 2 7 -1 30 -27 50 -57z m-240 -111 c-2 -84 -8 -157 -13 -163 -5 -5 -32
-9 -60 -10 l-51 0 0 55 c0 244 1 250 25 260 12 5 40 9 63 9 l41 1 -5 -152z
m74 57 c10 -72 -4 -152 -32 -183 l-25 -27 5 50 c3 28 6 95 7 149 2 98 2 100
20 78 10 -13 21 -43 25 -67z m-316 53 c6 -230 4 -298 -8 -303 -36 -14 -37 -8
-31 152 3 87 7 159 8 161 5 8 31 0 31 -10z m92 -115 c-4 -161 -5 -167 -27
-118 -24 54 -18 194 10 225 10 11 19 20 19 20 1 0 0 -57 -2 -127z m-153 45
c-1 -40 -4 -111 -8 -158 l-8 -85 -1 69 c-2 66 -3 68 -24 62 -13 -3 -31 -6 -40
-6 -14 0 -18 -12 -20 -67 l-3 -67 -39 -8 c-21 -5 -40 -7 -42 -6 -6 7 -13 273
-8 294 4 17 13 24 31 24 13 0 21 -4 18 -10 -3 -5 -1 -10 4 -10 6 0 11 7 11 15
0 8 4 15 10 15 5 0 12 -26 16 -58 l6 -58 37 5 36 6 3 58 c4 83 22 70 21 -15z
m1509 -37 c-4 -62 -20 -90 -59 -103 -6 -2 -11 -21 -12 -43 0 -22 -7 -48 -15
-57 -17 -20 -62 -24 -62 -6 0 6 -7 4 -18 -5 -20 -18 -62 -23 -62 -8 0 5 11 12
25 15 28 7 35 29 8 24 -29 -5 -31 57 -3 72 34 18 50 5 50 -38 0 -35 3 -39 25
-39 14 0 25 5 25 13 0 8 -6 11 -15 8 -9 -4 -15 0 -15 9 0 8 10 18 23 22 l22 8
-22 4 c-43 8 -19 33 32 33 14 0 33 12 45 28 20 24 22 36 17 102 -3 54 -2 68 5
50 5 -14 8 -54 6 -89z m-596 74 c3 -14 1 -25 -3 -25 -5 0 -9 11 -9 25 0 14 2
25 4 25 2 0 6 -11 8 -25z m-1152 -28 c0 -33 -2 -34 -57 -47 -32 -7 -61 -17
-65 -24 -10 -15 -10 -118 1 -134 6 -11 21 -12 69 -5 l60 10 4 -34 c5 -39 -1
-44 -79 -63 -72 -19 -125 -3 -147 44 -32 67 -16 209 27 245 27 22 89 40 140
41 47 0 47 0 47 -33z m1670 -22 c0 -28 -4 -35 -20 -35 -27 0 -29 56 -2 63 9 3
18 5 20 6 1 0 2 -15 2 -34z m-1940 -134 c0 -161 -3 -171 -57 -171 -27 0 -37 7
-65 47 -18 26 -42 64 -53 85 l-21 39 4 -95 c4 -80 2 -96 -11 -96 -8 0 -29 -3
-46 -6 l-31 -6 0 160 c0 174 -1 172 59 172 24 0 36 -12 82 -80 29 -44 54 -80
56 -80 2 0 3 10 2 23 -1 12 -1 52 -1 89 l2 67 33 3 c17 2 35 2 40 0 4 -2 7
-70 7 -151z m1003 67 c2 -49 1 -88 -4 -88 -5 0 -9 41 -9 92 0 50 2 89 4 87 2
-2 6 -43 9 -91z m-1693 62 c14 -14 20 -32 18 -62 l-1 -43 -4 42 c-3 31 -11 48
-30 63 -14 11 -21 20 -14 20 6 0 20 -9 31 -20z m285 -28 c10 -7 91 -247 97
-287 3 -17 -4 -21 -45 -25 -47 -6 -48 -5 -54 22 -7 37 -13 40 -62 32 -32 -5
-41 -11 -41 -26 0 -41 -19 -58 -63 -58 -23 0 -78 -7 -122 -15 -86 -15 -121
-14 -118 3 2 6 -3 9 -11 6 -20 -8 -26 27 -26 169 0 101 3 127 14 127 7 0 28 3
45 6 l31 7 0 -45 c0 -25 3 -80 7 -123 l6 -77 64 6 63 7 0 -27 c0 -44 10 -22
34 77 51 203 53 208 94 214 20 4 44 8 52 10 8 1 17 3 20 4 3 0 10 -3 15 -7z
m1845 -27 c0 -14 0 -28 1 -32 0 -5 -7 -9 -15 -11 -12 -3 -16 5 -16 26 0 16 3
32 7 35 13 14 23 6 23 -18z m345 -85 c3 -6 -6 -15 -22 -22 -26 -11 -26 -12 -6
-15 12 -2 24 -10 26 -17 8 -20 -16 -60 -37 -64 -30 -6 -39 13 -32 63 6 34 13
48 29 55 29 12 35 12 42 0z m-85 -19 c0 -5 -10 -12 -22 -15 l-23 -7 23 -11
c12 -6 22 -19 22 -29 0 -23 -27 -49 -51 -49 -25 0 -25 16 1 23 23 6 27 27 5
27 -10 0 -15 11 -15 35 0 32 2 35 30 35 17 0 30 -4 30 -9z m-143 -60 c-4 -58
-12 -71 -43 -71 -27 0 -40 21 -28 48 4 9 6 21 5 26 -4 18 11 45 27 49 34 7 42
-4 39 -52z m-87 -4 c0 -57 -17 -80 -55 -75 l-30 4 30 14 c28 13 29 14 8 17
-17 3 -23 11 -23 32 0 33 16 51 47 51 20 0 23 -5 23 -43z m-2495 -33 c-82 -77
-251 -207 -298 -229 -18 -8 -24 -10 -13 -3 105 72 197 142 276 213 52 47 97
85 100 85 3 -1 -26 -30 -65 -66z m2407 36 c-2 -14 -11 -33 -19 -42 -15 -16
-15 -18 0 -18 31 0 18 -28 -15 -33 -48 -7 -52 5 -17 49 l31 39 -25 3 c-40 5
-23 34 17 30 27 -3 31 -6 28 -28z m-84 -27 c2 -32 -2 -47 -17 -62 -22 -22 -61
-29 -61 -11 0 6 6 10 14 10 7 0 19 7 26 15 10 13 9 15 -9 15 -29 0 -37 25 -16
56 11 17 24 24 38 22 18 -2 23 -11 25 -45z m-90 -6 c4 -49 -19 -87 -53 -87
-32 0 -32 16 0 24 28 7 34 25 8 22 -13 -1 -19 8 -21 27 -4 35 14 59 42 55 16
-2 22 -11 24 -41z m-123 -29 c0 -41 -6 -62 -19 -77 -26 -28 -29 -21 -11 22 18
44 19 88 3 106 -11 10 -9 12 7 9 17 -3 20 -11 20 -60z m535 53 c0 -12 -39 -21
-45 -11 -3 5 1 11 7 13 21 9 38 8 38 -2z m-580 -16 c0 -8 -9 -15 -19 -15 -11
0 -23 -4 -26 -10 -3 -5 1 -10 9 -10 22 0 35 -31 25 -57 -6 -17 -16 -23 -39
-23 -36 0 -40 15 -5 24 30 8 32 22 4 29 -31 8 -23 59 11 68 38 11 40 10 40 -6z
m-174 -17 c-22 -34 -30 -92 -16 -118 10 -19 9 -21 -7 -18 -29 5 -31 95 -3 131
26 33 46 36 26 5z m-88 -4 c12 -8 22 -25 22 -37 -1 -20 -2 -20 -16 6 -15 27
-43 35 -78 21 -21 -8 -21 -24 0 -24 11 0 15 -6 11 -20 -5 -21 16 -45 32 -36
14 9 25 -14 13 -26 -17 -17 -62 18 -69 52 -7 36 -23 30 -23 -8 0 -59 10 -72
51 -72 34 0 42 5 59 33 11 18 20 25 20 16 0 -30 -48 -63 -93 -64 l-43 -2 -2
55 c-3 60 14 97 51 112 32 13 40 12 65 -6z m174 -9 c-2 -11 -3 -31 -3 -45 1
-35 -10 -48 -44 -52 l-30 -3 3 50 c4 71 7 77 44 73 27 -2 32 -7 30 -23z m-328
-23 c-6 -4 -25 -35 -42 -69 -28 -54 -52 -86 -52 -68 0 3 16 37 35 75 23 47 41
70 53 70 11 0 13 -3 6 -8z m133 2 c-3 -3 -12 -4 -19 -1 -8 3 -5 6 6 6 11 1 17
-2 13 -5z m-270 -30 c-3 -3 -12 -4 -19 -1 -8 3 -5 6 6 6 11 1 17 -2 13 -5z
m-70 -10 c-3 -3 -12 -4 -19 -1 -8 3 -5 6 6 6 11 1 17 -2 13 -5z m-237 -37 c8
-3 -4 -6 -27 -6 -48 -1 -50 1 -26 24 14 15 18 15 27 3 6 -8 18 -17 26 -21z
m158 26 c-10 -2 -28 -2 -40 0 -13 2 -5 4 17 4 22 1 32 -1 23 -4z m149 -30 c-8
-44 -37 -87 -63 -91 -15 -3 -16 -1 -7 8 6 7 10 18 8 24 -2 6 -6 23 -9 38 -6
25 -9 27 -26 16 -10 -7 -20 -23 -22 -37 -2 -13 -9 -26 -16 -29 -10 -3 -12 7
-10 39 2 33 7 44 20 44 9 0 20 4 24 8 4 4 18 7 31 7 19 0 23 -5 23 -30 0 -16
5 -30 10 -30 6 0 10 9 10 19 0 27 10 51 22 51 7 0 8 -15 5 -37z m-220 21 c-3
-3 -12 -4 -19 -1 -8 3 -5 6 6 6 11 1 17 -2 13 -5z m-1397 -67 c-62 -57 -235
-174 -325 -220 -208 -105 -407 -125 -526 -54 -70 43 -76 67 -7 28 115 -65 275
-56 463 26 128 56 286 156 404 256 56 48 49 18 -9 -36z m1156 48 c-11 -8 -25
-15 -30 -15 -6 1 0 7 14 15 32 19 40 18 16 0z m69 -29 c-8 -49 1 -78 16 -55 5
8 9 26 9 42 0 18 5 27 16 27 11 0 14 -5 10 -16 -3 -9 -6 -28 -6 -44 0 -24 -5
-28 -32 -33 -18 -3 -37 -2 -41 2 -14 13 4 121 20 121 11 0 13 -10 8 -44z m235
14 c0 -12 -10 -24 -22 -30 -19 -7 -20 -9 -5 -9 31 -1 13 -26 -19 -26 -24 0
-30 4 -32 28 -4 37 13 57 49 57 22 0 29 -5 29 -20z m-460 -17 c-17 -12 -24
-13 -33 -4 -15 15 7 31 35 24 18 -5 18 -6 -2 -20z m105 17 c3 -5 2 -10 -4 -10
-5 0 -13 -24 -18 -52 -7 -41 -12 -52 -25 -50 -9 1 -19 -2 -23 -7 -10 -18 -35
0 -35 26 0 35 18 63 40 63 13 0 20 7 20 20 0 21 33 29 45 10z m261 -22 c-16
-78 -76 -80 -76 -2 0 15 6 24 15 24 10 0 15 -10 15 -32 0 -25 3 -29 10 -18 5
8 10 25 10 38 0 14 6 22 16 22 13 0 15 -7 10 -32z m-461 3 c3 -5 1 -12 -5 -16
-19 -12 -11 -26 9 -15 30 16 32 13 29 -37 -3 -53 -28 -74 -28 -24 0 38 -18 41
-22 4 -2 -16 -10 -29 -20 -31 -14 -3 -15 2 -7 38 5 23 9 47 8 53 -3 26 2 37
15 37 8 0 17 -4 21 -9z m270 -16 c0 -11 -11 -25 -25 -32 l-25 -13 23 0 c15 0
22 -5 20 -12 -3 -7 -18 -13 -34 -13 -31 0 -40 18 -30 60 9 37 71 46 71 10z
m-228 9 c-3 -3 -12 -4 -19 -1 -8 3 -5 6 6 6 11 1 17 -2 13 -5z m-177 -19 c0
-11 -11 -15 -37 -15 -38 0 -38 0 -13 14 34 19 50 19 50 1z m43 -2 c-7 -2 -19
-2 -25 0 -7 3 -2 5 12 5 14 0 19 -2 13 -5z m177 -15 c0 -36 -11 -68 -24 -68
-7 0 -10 16 -8 45 3 30 9 45 18 45 8 0 14 -10 14 -22z m-347 0 c-18 -9 -23
-20 -23 -48 0 -53 -18 -72 -73 -76 -46 -4 -47 -3 -47 24 0 36 16 52 52 52 24
0 28 -4 29 -27 l1 -28 7 30 c10 41 5 47 -40 44 -21 -2 -41 0 -44 3 -10 10 64
30 88 24 12 -3 29 -1 37 4 8 5 20 9 25 9 6 0 0 -5 -12 -11z m-167 -8 c15 -15
1 -139 -16 -150 -8 -5 -34 -12 -58 -16 -60 -9 -72 4 -72 82 0 54 3 65 22 78
25 18 108 22 124 6z m374 0 c0 -5 -9 -10 -21 -10 -21 0 -21 0 2 -19 21 -18 22
-21 9 -35 -8 -8 -27 -18 -42 -21 -22 -6 -28 -4 -28 9 0 11 9 16 28 16 l27 1
-28 15 c-23 12 -26 18 -17 34 11 21 70 29 70 10z m-90 -40 c0 -27 -5 -43 -15
-47 -21 -8 -22 -5 -17 45 6 57 32 59 32 2z m-93 -2 l10 -33 7 33 c4 17 14 32
22 32 18 0 18 -12 0 -55 -11 -26 -21 -35 -39 -35 -20 0 -25 6 -30 37 -10 59
13 76 30 21z m-897 -3 c0 -2 -13 -11 -30 -20 -38 -19 -40 -11 -2 9 31 17 32
18 32 11z m2670 -35 c-8 -5 -19 -10 -25 -10 -5 0 -3 5 5 10 8 5 20 10 25 10 6
0 3 -5 -5 -10z m-2790 -30 c-8 -5 -19 -10 -25 -10 -5 0 -3 5 5 10 8 5 20 10
25 10 6 0 3 -5 -5 -10z m-70 -30 c-8 -5 -19 -10 -25 -10 -5 0 -3 5 5 10 8 5
20 10 25 10 6 0 3 -5 -5 -10z m-43 -16 c-3 -3 -12 -4 -19 -1 -8 3 -5 6 6 6 11
1 17 -2 13 -5z m2668 -4 c-11 -5 -27 -9 -35 -9 -9 0 -8 4 5 9 11 5 27 9 35 9
9 0 8 -4 -5 -9z m-2708 -6 c-3 -3 -12 -4 -19 -1 -8 3 -5 6 6 6 11 1 17 -2 13
-5z m-50 -10 c-3 -3 -12 -4 -19 -1 -8 3 -5 6 6 6 11 1 17 -2 13 -5z m2700 0
c-3 -3 -12 -4 -19 -1 -8 3 -5 6 6 6 11 1 17 -2 13 -5z m-40 -10 c-3 -3 -12 -4
-19 -1 -8 3 -5 6 6 6 11 1 17 -2 13 -5z m-120 -30 c-3 -3 -12 -4 -19 -1 -8 3
-5 6 6 6 11 1 17 -2 13 -5z m-144 -31 c-7 -2 -19 -2 -25 0 -7 3 -2 5 12 5 14
0 19 -2 13 -5z m-56 -9 c-3 -3 -12 -4 -19 -1 -8 3 -5 6 6 6 11 1 17 -2 13 -5z
m-64 -11 c-7 -2 -21 -2 -30 0 -10 3 -4 5 12 5 17 0 24 -2 18 -5z m-76 -9 c-3
-3 -12 -4 -19 -1 -8 3 -5 6 6 6 11 1 17 -2 13 -5z m-74 -11 c-7 -2 -21 -2 -30
0 -10 3 -4 5 12 5 17 0 24 -2 18 -5z m-115 -10 c-10 -2 -26 -2 -35 0 -10 3 -2
5 17 5 19 0 27 -2 18 -5z m-265 -10 c-7 -2 -19 -2 -25 0 -7 3 -2 5 12 5 14 0
19 -2 13 -5z m84 1 c-3 -3 -12 -4 -19 -1 -8 3 -5 6 6 6 11 1 17 -2 13 -5z"/>
<path d="M10538 12297 c-46 -33 -128 -104 -128 -110 0 -2 6 -4 13 -5 6 -1 25
-4 40 -8 36 -8 74 25 83 73 3 18 15 44 26 58 25 32 22 32 -34 -8z"/>
<path d="M11216 10946 c-119 -62 -193 -128 -284 -251 -23 -31 -102 -224 -102
-249 0 -6 27 19 59 55 114 126 215 174 348 163 86 -7 158 -32 302 -102 177
-86 242 -81 271 22 24 86 -7 185 -77 246 -70 62 -266 138 -378 147 -66 5 -74
3 -139 -31z"/>
<path d="M11263 10472 c-155 -65 -233 -199 -233 -401 0 -53 5 -103 10 -111 7
-11 10 4 11 50 l1 65 22 -66 c12 -36 34 -85 48 -110 l26 -45 -71 -24 c-82 -28
-195 -99 -247 -155 -41 -44 -33 -41 67 31 130 93 216 111 379 78 82 -17 246
-83 336 -135 l53 -31 -42 44 -43 43 35 28 c47 37 45 54 -2 22 -21 -14 -45 -25
-55 -25 -9 0 -48 15 -87 34 l-70 33 30 29 c17 16 43 54 57 84 23 48 27 67 26
145 0 77 -4 98 -27 141 -38 75 -71 110 -133 140 -46 23 -63 26 -107 21 l-52
-7 30 20 c89 60 218 52 310 -18 95 -73 137 -163 160 -342 l11 -95 8 53 c13 87
-13 233 -58 323 -34 67 -103 139 -164 170 -62 31 -169 36 -229 11z m5 -235 c2
-12 -3 -17 -17 -17 -15 0 -21 6 -21 21 0 25 33 22 38 -4z m-53 -21 c14 -10 20
-26 20 -54 0 -69 -45 -94 -92 -50 -60 56 7 152 72 104z"/>
<path d="M12320 10204 c-65 -59 -93 -129 -100 -252 l-5 -105 -61 -17 c-79 -21
-159 -61 -204 -100 l-35 -30 55 21 c148 58 252 77 302 56 58 -24 105 -74 128
-133 24 -66 25 -102 5 -152 -30 -70 -82 -109 -164 -121 l-46 -7 39 -5 c58 -8
135 22 174 67 59 68 75 174 37 247 -12 24 -11 27 6 32 21 7 59 52 59 69 -1 6
-9 1 -19 -11 -11 -13 -32 -27 -47 -33 -24 -9 -31 -8 -52 14 l-25 25 31 26 c87
73 80 280 -12 353 -29 22 -24 32 14 32 54 0 109 -83 135 -205 11 -49 14 -53
14 -25 1 48 -25 152 -49 199 -26 51 -74 91 -111 91 -19 0 -42 -12 -69 -36z
m10 -109 c0 -8 -4 -15 -9 -15 -13 0 -22 16 -14 24 11 11 23 6 23 -9z m-23 -31
c9 -24 -14 -64 -37 -64 -24 0 -25 11 -5 50 17 33 32 38 42 14z"/>
<path d="M9787 9797 c65 -44 193 -158 193 -172 0 -5 -15 -29 -34 -53 -41 -51
-61 -125 -53 -200 6 -56 27 -98 27 -53 0 91 62 181 124 181 34 0 75 -35 136
-117 36 -49 44 -40 15 17 -94 186 -308 397 -430 426 -25 6 -22 1 22 -29z"/>
<path d="M11289 9581 c-37 -18 -110 -68 -144 -98 -31 -28 -88 -103 -77 -103 5
0 35 18 67 41 31 22 60 38 62 35 3 -3 22 -55 43 -116 117 -339 356 -618 610
-713 153 -58 378 -71 474 -29 102 46 223 300 272 575 9 53 20 97 24 97 3 0 18
-24 32 -52 23 -45 27 -49 27 -27 1 39 -24 105 -70 182 -45 76 -58 83 -32 19
l16 -43 -28 -29 c-53 -56 -104 -65 -350 -65 -257 0 -349 15 -595 95 -136 45
-360 144 -360 161 0 4 21 26 46 48 49 43 43 52 -17 22z m303 -276 c223 -79
440 -119 660 -119 l158 -1 0 -66 c0 -107 -33 -171 -102 -200 -28 -11 -29 -13
-13 -25 24 -18 31 -98 15 -164 -17 -72 -45 -84 -206 -83 -110 0 -132 3 -224
33 -173 55 -314 165 -331 256 -11 55 -4 84 18 84 15 0 15 2 1 18 -26 29 -55
94 -72 163 -17 69 -21 139 -8 139 4 0 51 -16 104 -35z"/>
<path d="M12030 9430 c-25 -4 -40 -8 -35 -9 6 -1 27 -5 48 -10 32 -8 39 -6 48
10 11 21 13 21 -61 9z"/>
<path d="M10408 9357 c17 -20 61 -34 132 -41 63 -6 44 5 -50 30 -30 8 -64 17
-75 20 -17 6 -18 5 -7 -9z"/>
<path d="M12076 8429 c2 -3 30 -12 63 -19 78 -16 188 -10 221 13 24 17 20 18
-131 15 -86 -2 -155 -6 -153 -9z"/>
<path d="M7167 9203 c-13 -12 -7 -59 14 -124 43 -130 101 -199 169 -199 105 0
106 128 3 221 -71 63 -170 118 -186 102z m61 -32 c154 -81 233 -217 156 -267
-32 -21 -86 -3 -118 39 -42 56 -86 168 -86 218 0 34 0 34 48 10z"/>
<path d="M6817 8803 c-6 -10 38 -121 58 -147 28 -37 25 -9 -5 55 -16 35 -30
69 -30 76 0 15 -17 26 -23 16z"/>
<path d="M6885 8719 c9 -31 52 -106 66 -114 23 -15 19 6 -9 47 -16 24 -31 52
-33 62 -2 11 -10 21 -18 24 -10 3 -11 -2 -6 -19z"/>
<path d="M8245 8160 c-27 -17 -54 -31 -60 -34 -5 -2 -7 -6 -4 -10 12 -13 129
47 129 67 0 12 -13 7 -65 -23z"/>
<path d="M8344 8169 c-10 -12 -31 -27 -46 -35 -27 -14 -38 -34 -19 -34 13 0
101 70 101 80 0 16 -16 11 -36 -11z"/>
<path d="M9500 7867 c-25 -11 -72 -28 -104 -37 -61 -17 -95 -47 -39 -35 56 12
172 57 184 71 19 23 8 23 -41 1z"/>
<path d="M9245 7800 c-16 -4 -56 -8 -87 -9 -62 -1 -78 -16 -26 -23 49 -8 178
14 178 29 0 14 -18 15 -65 3z"/>
<path d="M12730 7026 c0 -3 9 -10 20 -16 11 -6 20 -8 20 -6 0 3 -9 10 -20 16
-11 6 -20 8 -20 6z"/>
<path d="M12815 6960 c10 -11 20 -20 23 -20 3 0 -3 9 -13 20 -10 11 -20 20
-23 20 -3 0 3 -9 13 -20z"/>
<path d="M12906 6555 c-16 -12 -17 -15 -4 -15 9 0 18 7 22 15 7 18 6 18 -18 0z"/>
<path d="M12905 6442 c-13 -9 -19 -46 -7 -38 6 3 13 0 16 -6 3 -7 2 0 -1 16
-5 22 -3 27 7 21 9 -5 11 -4 6 3 -8 14 -8 14 -21 4z"/>
<path d="M12883 6309 c-1 -12 -1 -20 0 -18 2 2 9 12 16 22 11 14 11 17 -1 17
-7 0 -14 -10 -15 -21z"/>
<path d="M12921 6296 l-25 -31 30 25 c16 14 30 26 32 26 2 1 0 4 -5 7 -4 2
-19 -10 -32 -27z"/>
<path d="M12862 6263 c2 -10 12 -17 22 -16 13 1 15 -2 7 -10 -6 -6 -11 -18
-11 -26 0 -20 16 -3 25 27 5 16 2 22 -9 22 -9 0 -16 5 -16 10 0 6 -5 10 -11
10 -6 0 -9 -8 -7 -17z"/>
<path d="M12901 6200 c-19 -16 -32 -32 -30 -35 3 -2 21 11 39 30 41 42 37 45
-9 5z"/>
<path d="M12910 6175 c-7 -9 -11 -17 -9 -20 3 -2 10 5 17 15 14 24 10 26 -8 5z"/>
<path d="M9925 6689 c-4 -6 -5 -12 -2 -15 2 -3 7 2 10 11 7 17 1 20 -8 4z"/>
<path d="M8577 6158 c-20 -132 -21 -169 -2 -82 14 65 30 194 23 194 -2 0 -11
-51 -21 -112z"/>
<path d="M8551 6004 c-1 -6 -10 -61 -21 -124 -12 -62 -19 -114 -17 -117 7 -6
49 226 44 240 -3 7 -6 7 -6 1z"/>
<path d="M8491 5695 c-7 -33 -26 -122 -42 -198 -17 -75 -29 -142 -27 -149 4
-10 20 56 70 286 10 49 17 96 15 105 -2 9 -9 -11 -16 -44z"/>
<path d="M8412 5310 c0 -14 2 -19 5 -12 2 6 2 18 0 25 -3 6 -5 1 -5 -13z"/>
<path d="M11690 6506 c0 -2 8 -10 18 -17 15 -13 16 -12 3 4 -13 16 -21 21 -21
13z"/>
<path d="M9747 5483 c-4 -3 -7 -11 -7 -17 0 -6 5 -5 12 2 6 6 9 14 7 17 -3 3
-9 2 -12 -2z"/>
<path d="M9730 5419 c0 -5 5 -7 10 -4 6 3 10 8 10 11 0 2 -4 4 -10 4 -5 0 -10
-5 -10 -11z"/>
<path d="M9737 5386 c-3 -7 -6 -62 -7 -122 -1 -60 -3 -136 -5 -169 -7 -122 -7
-196 -1 -202 3 -4 7 16 8 43 1 27 3 76 4 109 7 126 12 355 9 355 -1 0 -5 -6
-8 -14z"/>
<path d="M9720 4873 c-1 -5 -3 -41 -6 -80 -4 -47 -2 -73 4 -73 6 0 11 8 11 18
0 9 2 45 3 80 2 34 0 62 -4 62 -5 0 -8 -3 -8 -7z"/>
<path d="M6941 5314 c0 -11 3 -14 6 -6 3 7 2 16 -1 19 -3 4 -6 -2 -5 -13z"/>
<path d="M6970 5201 c0 -6 4 -13 10 -16 6 -3 7 1 4 9 -7 18 -14 21 -14 7z"/>
<path d="M10263 3987 c-70 -111 -105 -187 -88 -187 26 0 73 50 99 106 25 53
52 151 44 159 -2 2 -27 -33 -55 -78z"/>
<path d="M11938 4277 c-54 -85 -99 -170 -92 -176 9 -10 60 38 86 80 24 39 63
157 55 166 -2 1 -24 -30 -49 -70z"/>
<path d="M9490 4504 c-57 -18 -182 -86 -188 -102 -2 -7 5 -12 18 -12 12 0 35
-13 51 -29 l29 -30 -26 -58 c-46 -100 -94 -216 -91 -219 1 -2 23 14 47 34 56
47 198 150 313 227 72 48 87 62 87 84 0 38 -31 94 -60 108 -33 17 -124 15
-180 -3z m-13 -161 c-3 -10 -5 -4 -5 12 0 17 2 24 5 18 2 -7 2 -21 0 -30z"/>
<path d="M9645 4152 c-149 -100 -329 -247 -422 -344 -58 -61 -63 -70 -101
-189 -22 -68 -54 -189 -72 -269 -20 -91 -39 -152 -50 -164 -27 -28 -109 -33
-139 -9 -23 19 -23 19 -8 88 8 39 24 102 36 140 l20 70 -45 -49 c-64 -70 -92
-111 -175 -261 -15 -27 -35 -76 -44 -107 -36 -126 -4 -160 113 -120 341 118
854 764 957 1208 7 30 10 54 6 53 -3 0 -38 -21 -76 -47z m-125 -206 c0 -2 -8
-10 -17 -17 -16 -13 -17 -12 -4 4 13 16 21 21 21 13z m-40 -29 c0 -2 -12 -14
-27 -28 l-28 -24 24 28 c23 25 31 32 31 24z m-142 -130 c-47 -45 -93 -95 -101
-112 -8 -16 -32 -92 -53 -168 -21 -76 -40 -134 -42 -128 -2 5 10 56 27 113 60
210 56 202 155 294 49 46 92 84 95 84 4 0 -33 -37 -81 -83z m-592 -724 c-8
-15 -15 -22 -16 -15 0 17 20 55 27 49 2 -3 -2 -18 -11 -34z"/>
<path d="M12727 3653 c-71 -97 -128 -191 -108 -179 29 18 195 266 178 266 -3
0 -34 -39 -70 -87z"/>
<path d="M11120 3371 c-5 -11 -10 -45 -10 -76 0 -89 27 -118 70 -75 22 22 28
99 10 144 -12 32 -54 36 -70 7z"/>
<path d="M10763 3345 c-3 -9 -3 -18 -1 -21 3 -3 8 4 11 16 6 23 -1 27 -10 5z"/>
<path d="M12225 3169 c-10 -15 3 -25 16 -12 7 7 7 13 1 17 -6 3 -14 1 -17 -5z"/>
<path d="M9925 3194 c-4 -22 -9 -47 -12 -56 -3 -14 2 -18 22 -18 26 0 26 1 19
48 -9 63 -21 74 -29 26z"/>
<path d="M9591 3154 c0 -11 3 -14 6 -6 3 7 2 16 -1 19 -3 4 -6 -2 -5 -13z"/>
<path d="M9582 3010 c0 -14 2 -19 5 -12 2 6 2 18 0 25 -3 6 -5 1 -5 -13z"/>
<path d="M12140 3115 c0 -8 5 -15 10 -15 6 0 10 7 10 15 0 8 -4 15 -10 15 -5
0 -10 -7 -10 -15z"/>
<path d="M11915 3131 c-6 -11 9 -23 19 -14 9 9 7 23 -3 23 -6 0 -12 -4 -16 -9z"/>
<path d="M11910 3075 c0 -8 5 -15 10 -15 6 0 10 7 10 15 0 8 -4 15 -10 15 -5
0 -10 -7 -10 -15z"/>
<path d="M11823 3115 c-3 -9 -3 -18 0 -21 9 -9 27 6 27 22 0 19 -19 18 -27 -1z"/>
<path d="M11654 3096 c-8 -22 3 -33 18 -18 9 9 9 15 0 24 -9 9 -13 7 -18 -6z"/>
<path d="M11560 3074 c0 -9 5 -14 12 -12 18 6 21 28 4 28 -9 0 -16 -7 -16 -16z"/>
<path d="M11305 3051 c-6 -11 9 -23 19 -14 9 9 7 23 -3 23 -6 0 -12 -4 -16 -9z"/>
<path d="M11296 2995 c-3 -9 0 -15 9 -15 8 0 15 7 15 15 0 8 -4 15 -9 15 -5 0
-11 -7 -15 -15z"/>
<path d="M10680 2930 c0 -5 7 -7 15 -4 8 4 15 8 15 10 0 2 -7 4 -15 4 -8 0
-15 -4 -15 -10z"/>
<path d="M10303 2875 c-3 -9 -3 -18 0 -21 9 -9 27 6 27 22 0 19 -19 18 -27 -1z"/>
<path d="M9796 2794 c-9 -22 3 -32 14 -14 12 19 12 30 1 30 -5 0 -12 -7 -15
-16z"/>
<path d="M9626 2844 c-17 -17 -22 -90 -7 -113 6 -10 21 -12 50 -8 58 7 71 21
71 74 0 40 -2 44 -20 38 -11 -3 -20 -2 -20 4 0 5 8 12 18 14 9 3 -4 5 -30 6
-30 1 -52 -4 -62 -15z m79 -24 c17 -18 17 -21 1 -45 -33 -51 -88 -17 -60 37
17 33 34 35 59 8z"/>
<path d="M9657 2813 c-11 -10 -8 -41 4 -49 16 -9 43 21 36 40 -7 16 -28 21
-40 9z"/>
<path d="M12869 10703 c-123 -117 -129 -124 -129 -145 0 -16 4 -14 27 14 15
18 28 35 30 37 10 15 341 -303 472 -454 390 -451 661 -946 865 -1580 91 -285
174 -745 196 -1087 10 -160 4 -579 -10 -738 -52 -587 -209 -1159 -460 -1675
-109 -225 -264 -485 -384 -648 -15 -21 -21 -45 -23 -90 -2 -102 -34 -169 -116
-246 -179 -167 -188 -179 -246 -315 -29 -70 -51 -129 -49 -132 6 -5 206 207
313 331 400 464 752 1128 934 1762 131 456 180 782 206 1368 11 249 -21 660
-76 980 -118 677 -387 1338 -766 1883 -151 216 -292 383 -505 595 l-208 209
-71 -69z"/>
<path d="M13855 5429 c-4 -6 -5 -12 -2 -15 2 -3 7 2 10 11 7 17 1 20 -8 4z"/>
<path d="M13850 5348 c-136 -262 -322 -542 -474 -717 -40 -46 -56 -73 -56 -93
0 -21 5 -28 19 -28 11 0 23 -4 26 -10 3 -5 10 -10 14 -10 10 0 165 235 240
364 88 150 288 562 278 573 -2 2 -23 -34 -47 -79z"/>
<path d="M13790 5308 c-62 -114 -54 -100 -176 -288 -100 -154 -200 -288 -276
-366 -22 -23 -35 -44 -30 -48 18 -11 219 243 309 390 116 188 148 243 188 317
26 48 44 87 42 87 -3 0 -29 -42 -57 -92z"/>
<path d="M13061 3779 c-17 -40 -30 -74 -28 -76 2 -2 18 29 36 68 17 40 30 74
28 76 -2 2 -18 -29 -36 -68z"/>
<path d="M12435 3173 c-3 -21 -15 -53 -26 -71 -10 -18 -19 -35 -19 -36 0 -2
30 3 66 10 70 15 171 59 214 94 l25 20 -28 -10 c-45 -16 -128 -11 -176 10 -24
11 -44 20 -46 20 -2 0 -6 -17 -10 -37z"/>
</g>
</svg>
