<?xml version="1.0" standalone="no"?>
<!DOCTYPE svg PUBLIC "-//W3C//DTD SVG 20010904//EN"
 "http://www.w3.org/TR/2001/REC-SVG-20010904/DTD/svg10.dtd">
<svg version="1.0" xmlns="http://www.w3.org/2000/svg"
 width="4026.000000pt" height="4324.000000pt" viewBox="0 0 4026.000000 4324.000000"
 preserveAspectRatio="xMidYMid meet">

<g transform="translate(0.000000,4324.000000) scale(0.100000,-0.100000)"
fill="#000000" stroke="none">
<path d="M27570 43229 c-419 -39 -778 -144 -1093 -321 -266 -149 -529 -349
-972 -742 -205 -182 -211 -188 -550 -507 -137 -130 -266 -250 -286 -267 l-35
-31 -125 40 c-651 210 -1337 336 -2072 380 -260 15 -958 7 -1202 -15 -869 -78
-1710 -267 -2324 -523 -806 -335 -1446 -842 -2496 -1978 -749 -809 -1575
-1890 -2094 -2740 l-104 -170 -186 -74 c-847 -336 -1741 -774 -2556 -1251
-2172 -1273 -4086 -2976 -5586 -4971 -83 -110 -156 -202 -162 -203 -7 -2 -59
-13 -117 -26 -58 -12 -170 -43 -250 -70 -677 -222 -1342 -676 -1722 -1175 -37
-48 -68 -79 -77 -78 -9 1 -45 7 -80 13 -331 55 -1196 -285 -1723 -678 l-107
-79 -278 -6 c-444 -9 -699 -56 -938 -172 -206 -99 -334 -237 -401 -430 -26
-74 -28 -91 -29 -240 0 -179 13 -261 70 -430 140 -422 456 -911 954 -1480 57
-66 242 -258 410 -426 385 -384 683 -648 1070 -947 90 -70 173 -134 184 -143
19 -15 19 -18 -41 -265 -366 -1500 -538 -3033 -519 -4614 4 -272 11 -578 17
-680 26 -483 70 -1017 83 -1013 4 2 60 69 126 150 190 237 401 473 622 695
l206 207 -9 213 c-14 303 -3 1356 16 1663 67 1060 183 1882 418 2951 l11 51
141 -87 c78 -48 199 -119 269 -160 70 -40 130 -77 133 -82 3 -4 -17 -117 -45
-250 -234 -1138 -350 -2293 -351 -3480 0 -175 2 -318 5 -318 3 0 66 46 141
101 530 395 1095 712 1625 909 887 332 1905 428 2734 258 83 -17 157 -31 165
-33 8 -1 22 -5 30 -8 8 -3 72 -23 142 -46 581 -186 1092 -575 1421 -1081 271
-418 442 -923 506 -1495 35 -310 44 -525 38 -925 -6 -433 -27 -714 -92 -1235
-46 -364 -106 -724 -276 -1640 -88 -474 -137 -721 -327 -1660 -119 -584 -259
-1361 -248 -1372 2 -2 94 183 205 410 363 741 1031 2047 1454 2842 907 1710
1621 2933 2314 3970 728 1089 1325 1847 1995 2530 386 394 633 595 962 785
574 331 1331 544 2131 600 194 14 689 14 875 0 622 -45 1178 -175 1565 -366
636 -313 960 -830 864 -1379 -36 -201 -152 -438 -283 -573 -161 -167 -396
-252 -617 -222 -178 24 -315 94 -449 229 l-85 86 -160 0 c-189 0 -259 -13
-480 -86 -260 -86 -534 -234 -785 -424 -429 -325 -888 -771 -1368 -1330 l-120
-140 52 -6 c28 -4 107 -12 176 -18 447 -40 928 -231 1261 -499 146 -118 250
-248 323 -403 69 -148 81 -208 81 -394 0 -274 -44 -379 -345 -830 -58 -88
-110 -166 -114 -172 -4 -7 44 36 106 96 251 240 490 425 778 601 149 92 218
125 361 175 472 164 1111 107 1809 -162 l115 -44 30 33 c17 19 80 92 140 163
137 161 379 406 550 556 538 473 661 563 850 622 85 27 207 47 281 47 31 0 44
4 44 14 0 7 -14 108 -30 222 -88 608 -159 1271 -195 1814 -12 194 -35 656 -35
723 0 13 8 17 35 17 l35 0 0 -87 c1 -322 74 -1188 146 -1723 47 -353 148 -954
164 -981 4 -5 38 -17 76 -25 226 -47 507 -194 764 -400 195 -157 427 -413 557
-614 32 -49 60 -90 63 -90 3 0 14 15 24 33 11 17 100 163 200 322 435 698 935
1410 1286 1832 326 391 736 780 984 933 162 100 354 169 557 198 l116 17 -32
140 c-113 483 -299 1030 -403 1185 -20 30 -59 71 -87 92 -124 94 -724 373
-1381 642 l-91 38 20 79 c10 43 22 77 26 75 32 -20 1187 -547 1217 -556 45
-13 123 -11 296 11 59 7 110 10 114 6 4 -4 1 -58 -6 -121 -16 -143 -11 -167
75 -323 162 -294 324 -734 405 -1098 12 -55 26 -116 31 -136 l9 -36 92 -6
c188 -12 505 -85 714 -162 647 -241 1115 -710 1210 -1212 23 -123 15 -357 -16
-463 -76 -261 -237 -462 -465 -578 -185 -94 -657 -569 -1131 -1137 -228 -273
-713 -899 -842 -1087 -37 -53 -34 -55 48 -33 151 41 428 56 628 34 631 -68
1234 -373 1577 -798 255 -316 343 -692 244 -1049 -35 -124 -57 -171 -299 -617
-51 -95 -44 -90 40 30 45 64 91 152 157 300 130 290 392 818 502 1008 285 496
466 737 634 847 37 24 67 49 67 55 -1 5 -7 37 -15 70 -26 105 -29 238 -10 360
61 391 268 980 522 1488 101 203 227 430 278 502 52 73 190 207 265 256 297
196 694 259 1184 188 656 -94 1263 -448 1470 -856 113 -224 134 -471 59 -707
-50 -160 -68 -189 -662 -1080 -377 -567 -479 -714 -539 -774 l-73 -74 24 -37
c136 -205 189 -498 133 -733 -7 -32 -12 -58 -11 -58 1 0 19 26 40 57 103 156
249 284 420 368 435 214 991 113 1357 -247 204 -202 301 -439 285 -701 -7
-110 -25 -188 -64 -281 -57 -135 -353 -619 -684 -1116 -535 -804 -1057 -1482
-1584 -2059 -180 -196 -605 -617 -722 -715 -81 -68 -83 -70 -84 -115 0 -25 -6
-92 -12 -148 l-12 -103 35 0 c46 0 151 -25 220 -52 73 -28 133 -62 203 -116
31 -24 62 -40 67 -37 21 13 327 376 515 610 762 950 1409 1956 1949 3030 1395
2770 1998 5836 1761 8950 -199 2606 -1007 5144 -2355 7395 -678 1133 -1430
2120 -2359 3095 l-171 180 0 430 0 430 286 -285 c544 -543 941 -984 1387
-1540 2177 -2716 3487 -5971 3796 -9430 84 -936 93 -1909 26 -2865 -264 -3767
-1736 -7340 -4211 -10219 -100 -116 -220 -254 -267 -306 l-86 -95 -1 -88 c0
-222 -96 -494 -239 -684 -90 -119 -197 -214 -392 -347 -341 -234 -588 -420
-830 -625 l-137 -116 -93 -200 c-270 -583 -533 -1073 -752 -1399 l-59 -88 64
43 c118 80 423 302 628 457 1097 831 2130 1809 3019 2857 2277 2687 3743 5931
4245 9390 132 912 190 1732 190 2700 0 1118 -79 2060 -265 3160 -410 2428
-1338 4811 -2694 6920 -1029 1600 -2313 3054 -3786 4287 -909 761 -1943 1471
-2974 2043 -77 43 -142 79 -143 81 -2 1 108 114 245 251 329 326 531 557 795
903 445 585 703 1221 795 1960 28 223 25 716 -5 940 -41 305 -94 545 -179 805
-368 1135 -1190 2098 -2239 2623 -413 207 -842 338 -1314 403 -126 17 -217 22
-490 24 -184 2 -378 -1 -430 -6z m-435 -647 c-126 -76 -248 -155 -270 -175
-22 -21 -92 -74 -155 -119 -286 -205 -705 -614 -966 -943 -295 -372 -435 -613
-870 -1490 -304 -613 -432 -855 -451 -855 -40 0 4 159 126 452 125 301 181
485 153 502 -21 13 -722 -550 -1217 -979 -703 -608 -1702 -1555 -2159 -2045
-435 -468 -631 -660 -750 -740 -51 -35 -106 -52 -106 -34 0 13 809 984 1195
1434 1030 1202 1813 2050 2844 3080 1012 1010 1399 1359 1826 1643 132 87 386
223 463 247 15 5 68 26 117 48 125 55 327 108 425 111 16 1 -60 -50 -205 -137z
m-7865 -1680 c-29 -23 -195 -127 -420 -262 -274 -165 -834 -595 -1060 -813
-41 -40 -102 -97 -135 -127 -424 -381 -905 -877 -1321 -1360 -83 -96 -167
-192 -187 -213 -47 -48 -353 -432 -494 -617 -451 -595 -815 -1182 -1086 -1755
-213 -450 -276 -696 -323 -1250 -9 -110 -18 -202 -20 -204 -35 -39 -51 603
-20 826 40 295 130 550 357 1003 727 1456 1836 2811 3179 3886 463 371 894
659 1196 800 139 65 346 131 364 117 2 -2 -11 -16 -30 -31z m4295 -3987 c654
-185 1409 -435 2101 -694 253 -94 370 -140 799 -314 625 -253 995 -369 1360
-427 124 -20 131 -22 160 -54 33 -38 132 -209 226 -391 33 -66 65 -124 70
-129 12 -13 11 -36 -1 -36 -6 0 -28 -11 -50 -25 -22 -14 -48 -25 -58 -25 -11
0 -30 -9 -44 -19 -13 -11 -41 -22 -61 -26 -20 -4 -48 -16 -61 -26 -13 -11 -33
-19 -43 -19 -11 0 -29 -9 -41 -20 -12 -11 -27 -20 -34 -20 -16 0 -127 -56
-148 -75 -8 -7 -53 -32 -100 -54 -46 -23 -87 -45 -90 -49 -3 -4 -51 -38 -107
-75 -119 -79 -163 -126 -209 -223 -62 -133 -105 -368 -102 -555 1 -25 -2 -51
-6 -58 -12 -18 13 -102 39 -131 12 -14 33 -45 47 -70 48 -83 108 -120 197
-120 27 0 51 -5 53 -11 5 -16 175 27 218 55 20 13 66 29 107 36 44 7 87 21
109 36 20 14 57 29 83 34 45 8 167 49 226 76 30 13 124 39 180 48 17 3 117 28
224 56 107 27 196 48 199 46 6 -7 20 -138 44 -436 32 -388 31 -737 -1 -1035
-33 -301 -34 -513 -3 -653 64 -285 170 -517 490 -1067 236 -406 336 -611 451
-919 87 -233 236 -761 228 -805 -3 -13 4 -55 14 -94 11 -38 17 -77 14 -88 -3
-10 -1 -37 6 -61 6 -24 13 -70 14 -103 2 -33 10 -103 18 -156 30 -188 40 -443
34 -917 -5 -449 -15 -629 -52 -932 -59 -477 -146 -872 -285 -1290 -402 -1213
-1132 -2039 -2155 -2443 -321 -127 -637 -197 -1191 -266 -978 -122 -1704 -121
-2509 4 -669 104 -1662 375 -2625 717 -441 157 -655 245 -790 326 -492 296
-947 690 -1259 1092 -132 169 -289 390 -338 475 -132 226 -465 978 -572 1289
-111 322 -109 370 26 689 32 75 26 120 -28 235 -35 76 -41 83 -61 77 -13 -4
-91 -48 -175 -97 -352 -207 -751 -335 -1182 -378 -132 -13 -444 -13 -569 0
-53 6 -155 20 -227 31 -120 19 -144 26 -315 102 -629 278 -949 475 -1240 767
-200 199 -326 384 -432 630 -290 673 -194 1422 241 1873 319 331 771 409 1414
242 617 -159 1247 -499 1487 -801 73 -91 168 -279 254 -499 37 -93 94 -240
128 -325 33 -85 92 -217 131 -294 59 -117 74 -140 101 -151 56 -24 500 -69
931 -95 94 -5 190 -12 215 -15 75 -9 76 -3 15 133 -63 140 -130 321 -186 501
-86 274 -219 788 -219 848 0 21 -11 79 -25 128 -14 50 -25 111 -25 136 0 25
-7 70 -16 100 -9 30 -18 79 -20 109 -2 30 -8 89 -14 130 -5 41 -14 118 -19
170 -5 52 -16 154 -25 225 -83 699 -93 1354 -30 1925 36 326 123 824 164 933
11 29 31 108 45 176 29 138 59 227 97 292 46 78 188 239 378 430 334 336 443
420 765 595 207 112 1323 761 1681 977 460 277 747 465 1054 691 113 82 244
178 293 212 l87 62 133 -34 c72 -19 249 -68 392 -109z m-16068 -7468 c-129
-161 -323 -416 -451 -590 -67 -93 -87 -115 -92 -100 -62 180 -201 481 -267
577 l-26 39 28 36 c15 20 98 126 183 237 185 239 342 430 567 692 l166 194 3
-472 2 -471 -113 -142z m-1465 -104 c147 -111 322 -423 448 -803 44 -131 115
-399 134 -501 l6 -36 -67 -17 c-104 -26 -232 -80 -408 -171 -472 -243 -835
-512 -1210 -896 l-171 -175 -97 57 c-54 30 -130 71 -169 90 l-70 34 -65 130
c-138 277 -326 563 -487 741 l-68 75 27 64 c36 86 129 242 202 340 223 298
555 573 961 794 344 187 733 324 903 319 72 -3 78 -5 131 -45z m2964 -378
c277 -162 604 -907 641 -1460 l5 -90 -103 -44 c-490 -206 -1168 -653 -1622
-1069 -107 -97 -128 -104 -146 -48 -6 17 -85 288 -176 603 -91 315 -177 605
-191 645 -56 155 -119 253 -228 355 -42 39 -76 74 -76 78 0 15 144 177 222
250 330 310 859 631 1243 755 143 46 219 60 306 56 63 -2 85 -8 125 -31z
m-5524 -939 c85 -35 172 -102 288 -222 173 -179 338 -416 480 -686 l72 -138
-88 40 c-127 59 -334 135 -449 165 -113 30 -256 43 -297 26 -43 -16 -151 -171
-227 -323 -183 -366 -262 -828 -201 -1181 16 -95 61 -252 95 -330 9 -21 14
-23 -270 108 -522 240 -1082 538 -1407 748 l-88 57 0 74 c0 306 185 656 498
939 201 182 407 318 702 466 264 131 502 220 710 265 91 20 117 19 182 -8z
m3436 -100 c188 -50 325 -195 419 -444 13 -35 87 -283 164 -550 77 -268 143
-496 146 -507 5 -19 5 -19 -18 -2 -13 10 -53 32 -89 50 -61 30 -72 32 -170 31
-167 0 -305 -46 -655 -219 -315 -155 -601 -327 -825 -497 l-86 -65 -44 79
c-100 179 -304 412 -515 590 -49 41 -157 126 -240 188 -82 62 -151 116 -153
120 -5 12 278 299 408 413 217 190 487 384 730 524 121 70 384 203 462 234
160 64 349 86 466 55z m5592 -41 c80 -43 222 -190 308 -320 91 -136 223 -399
285 -568 233 -632 288 -1248 146 -1617 -28 -74 -29 -75 -80 -93 -28 -10 -52
-17 -53 -15 -2 2 -15 57 -31 123 -125 541 -396 1100 -651 1346 -122 116 -191
142 -320 120 -301 -52 -797 -333 -1196 -677 -58 -51 -109 -90 -112 -87 -3 4
-6 19 -6 34 0 93 -82 452 -151 663 l-49 149 30 37 c16 20 66 71 112 112 366
331 831 611 1253 753 179 61 252 75 365 72 83 -2 102 -6 150 -32z m-2348 -457
c194 -58 441 -591 538 -1161 41 -245 53 -405 46 -672 -7 -291 -23 -685 -28
-690 -1 -2 -42 -5 -89 -6 l-87 -3 -53 48 c-218 196 -584 419 -929 567 -402
171 -784 259 -1130 259 -171 0 -274 -11 -407 -45 -65 -17 -99 -21 -103 -14 -7
10 -13 34 -65 269 l-25 114 67 69 c177 180 560 484 853 678 480 317 955 544
1240 592 52 9 134 7 172 -5z m-6485 -294 c322 -66 911 -341 1227 -571 349
-255 595 -494 739 -718 45 -71 101 -176 95 -179 -2 -1 -47 -42 -101 -90 -256
-232 -439 -539 -488 -820 l-11 -66 -97 0 c-286 0 -570 172 -808 489 -342 454
-753 1456 -753 1835 0 138 28 155 197 120z m-2107 -59 c0 -2 -21 -37 -46 -76
-111 -172 -174 -337 -203 -531 l-17 -117 -74 57 c-107 80 -270 247 -304 311
-43 80 -49 117 -26 168 31 71 139 127 302 158 120 22 368 43 368 30z m1861
-290 c90 -466 434 -1243 725 -1636 42 -57 125 -152 185 -211 60 -60 107 -108
104 -108 -15 0 -804 324 -1127 462 -42 18 -49 27 -76 86 -139 311 -158 669
-57 1067 40 160 91 299 158 430 l52 100 7 -40 c4 -22 17 -89 29 -150z m8865
-26 c152 -97 348 -389 504 -754 67 -155 160 -436 198 -595 50 -205 50 -183 -5
-217 -178 -111 -405 -334 -590 -580 -81 -108 -236 -350 -282 -441 l-22 -43
-81 73 c-385 350 -819 601 -1156 669 l-63 13 5 91 c18 298 28 669 24 834 l-6
189 105 94 c430 381 993 694 1254 697 56 1 72 -3 115 -30z m-11597 -227 c680
-656 2748 -1617 5486 -2549 3095 -1054 6439 -1831 8089 -1880 l219 -6 -83 -39
c-45 -21 -91 -38 -101 -38 -9 0 -55 -18 -101 -40 -172 -84 -595 -206 -968
-280 -1139 -226 -2519 -226 -4122 1 l-296 42 -99 96 c-108 106 -197 160 -333
203 -65 20 -96 23 -226 23 l-151 0 -34 54 c-45 72 -179 208 -254 256 -130 85
-292 135 -437 135 l-73 0 -30 41 c-46 62 -202 210 -274 258 -76 52 -188 105
-256 122 -28 6 -78 25 -113 42 -35 16 -84 32 -110 35 -44 4 -54 11 -144 101
-165 166 -330 269 -523 327 -81 25 -105 27 -245 28 -129 0 -168 -4 -234 -22
-152 -42 -324 -139 -456 -259 -30 -27 -95 -73 -143 -103 -73 -46 -95 -66 -129
-117 -22 -35 -43 -63 -47 -63 -10 0 -314 175 -481 278 -1266 778 -2365 1749
-3038 2685 -194 269 -388 630 -426 792 -7 29 -6 28 30 -15 21 -25 67 -74 103
-108z m6792 -117 c123 -44 169 -117 258 -410 273 -897 282 -1479 30 -1990 -49
-100 -150 -250 -180 -268 -11 -7 -106 19 -350 96 -608 193 -1832 610 -2006
682 -31 13 -33 17 -33 63 0 27 7 88 15 135 78 445 394 824 1011 1210 338 211
769 423 972 477 85 23 224 25 283 5z m1239 -741 c359 -53 764 -194 1125 -391
144 -79 379 -231 478 -310 224 -179 367 -365 367 -478 0 -84 -75 -298 -137
-393 -101 -153 -351 -369 -678 -587 -210 -140 -471 -295 -496 -295 -49 0
-1676 468 -1701 489 -4 4 19 43 51 88 117 164 215 396 260 614 64 312 52 711
-33 1089 -14 63 -23 117 -18 121 20 18 201 58 317 70 107 10 336 2 465 -17z
m4695 -453 c370 -130 832 -822 990 -1481 40 -167 55 -294 55 -456 0 -378 -108
-605 -370 -779 -138 -92 -260 -148 -335 -153 -66 -4 -404 32 -730 79 -195 27
-691 108 -779 126 l-38 8 81 54 c44 29 114 89 156 133 192 204 224 433 100
735 -60 148 -190 345 -334 507 -33 38 -61 73 -61 78 0 33 195 344 324 518 117
158 358 405 482 492 210 150 328 185 459 139z m21759 -387 c11 -4 16 -19 16
-49 l0 -42 -46 -7 c-26 -3 -102 -6 -169 -6 -132 0 -135 1 -135 55 0 37 20 44
131 48 57 1 123 4 146 5 23 1 48 -1 57 -4z m-24353 -34 c606 -124 1429 -797
1654 -1353 106 -262 79 -460 -87 -642 -61 -66 -189 -159 -270 -194 l-44 -20
-295 59 c-577 115 -1156 247 -1814 415 -225 57 -422 108 -437 112 -26 8 -23
11 60 57 408 230 891 616 1032 825 77 114 150 332 150 446 0 61 -44 158 -114
253 l-46 62 56 0 c31 0 100 -9 155 -20z m24399 -140 c11 -11 20 -32 20 -47 0
-25 6 -30 48 -43 42 -13 48 -19 56 -52 12 -47 -10 -84 -57 -96 -31 -8 -32 -10
-29 -58 12 -230 116 -715 222 -1036 27 -83 50 -155 50 -158 0 -4 -46 -10 -102
-14 -212 -15 -532 -82 -743 -156 -49 -18 -151 -59 -225 -92 -74 -33 -170 -70
-215 -83 -76 -22 -284 -60 -291 -53 -2 2 10 46 27 98 111 350 186 782 209
1205 15 274 14 305 -9 305 -10 0 -30 9 -45 21 -20 16 -26 29 -26 58 0 40 18
63 58 75 17 6 22 15 22 38 0 61 66 91 104 49 17 -18 18 -18 41 5 29 29 54 30
87 4 25 -19 26 -19 43 0 22 24 72 26 96 4 16 -14 19 -14 38 5 26 26 61 27 93
2 24 -19 24 -19 36 0 16 25 75 26 99 2 17 -17 19 -17 40 5 27 27 60 28 88 2
l22 -20 18 20 c22 24 71 26 96 4 16 -14 19 -14 38 5 26 26 65 27 91 1z
m-30100 -65 c0 -14 -1 -25 -2 -25 -2 0 -25 9 -53 19 l-50 19 45 4 c25 3 48 5
53 6 4 1 7 -9 7 -23z m9525 -1565 c119 -89 214 -175 287 -258 200 -230 123
-362 -247 -428 -103 -18 -545 -31 -671 -19 l-78 7 80 42 c256 134 392 285 468
518 13 40 29 103 36 141 7 37 16 67 22 67 5 0 51 -32 103 -70z m-9015 -123
c31 -13 78 -38 105 -57 57 -39 185 -164 185 -182 0 -6 -26 -52 -59 -102 -162
-252 -289 -556 -381 -911 -41 -158 -94 -424 -87 -431 2 -3 28 37 57 88 268
472 538 799 853 1035 81 60 105 73 135 73 74 -1 170 -62 246 -158 l43 -53 -38
-72 c-150 -287 -278 -660 -328 -957 -21 -126 -37 -280 -28 -280 3 0 34 56 70
124 131 252 312 491 547 726 80 80 167 163 193 185 45 36 53 39 111 38 73 -1
111 -18 170 -76 47 -47 103 -139 112 -184 3 -16 -6 -98 -20 -183 -37 -226 -55
-416 -63 -669 -7 -248 -5 -254 49 -148 89 178 257 444 405 643 103 137 110
145 157 159 63 19 139 19 175 0 134 -69 259 -382 303 -755 14 -119 28 -102
-157 -194 -298 -148 -604 -223 -960 -233 -291 -9 -446 10 -845 103 -1142 267
-1722 531 -1806 822 -14 48 -15 71 -5 169 33 328 172 756 381 1173 27 53 53
116 60 140 14 52 29 71 90 113 71 50 147 77 215 77 40 0 79 -8 115 -23z
m11995 -77 c421 -23 904 -104 1365 -226 298 -80 328 -91 346 -125 8 -17 13
-33 11 -35 -3 -3 -69 8 -148 25 -243 50 -547 99 -795 126 -329 37 -875 36
-1330 -1 -202 -16 -205 -16 -227 3 -12 11 -62 48 -110 82 -49 35 -87 65 -85
67 10 10 319 64 418 74 218 20 331 22 555 10z m2981 -295 c277 -27 594 -87
897 -170 l135 -37 74 -92 c319 -389 780 -757 1222 -977 77 -38 136 -69 133
-69 -18 0 -273 97 -372 142 -225 101 -460 245 -660 404 -135 108 -359 332
-440 441 l-60 80 -55 6 c-225 24 -394 29 -755 23 -214 -3 -416 -9 -447 -12
l-57 -6 -85 129 c-47 72 -86 133 -86 136 0 12 41 15 216 16 99 0 252 -6 340
-14z m2164 -275 c107 -21 276 -60 375 -85 622 -158 1324 -257 2010 -281 l189
-7 -47 -42 c-145 -127 -405 -231 -678 -270 -700 -101 -1382 121 -1996 647 -51
44 -93 82 -93 85 0 3 10 3 23 -1 12 -3 110 -24 217 -46z m13475 -564 c107 -24
172 -61 250 -140 190 -192 295 -556 351 -1220 22 -247 25 -760 6 -866 -67
-372 -221 -696 -459 -959 l-49 -55 -130 33 c-186 48 -342 104 -479 170 -146
72 -236 136 -276 199 -37 57 -35 100 7 165 26 42 34 46 173 99 196 75 400 140
582 185 82 20 144 40 137 44 -17 8 -212 43 -353 63 -160 23 -298 35 -464 43
-163 7 -183 14 -269 97 -64 60 -86 108 -78 170 7 61 10 64 169 158 155 92 372
195 532 253 130 47 377 115 417 115 14 0 18 4 13 9 -20 19 -279 34 -490 28
-237 -7 -367 -22 -604 -69 l-164 -32 -38 45 c-22 24 -53 72 -70 106 -55 109
-39 134 182 279 234 154 639 319 982 399 42 10 77 23 77 28 0 16 -656 1 -790
-17 -204 -28 -529 -104 -592 -137 -36 -19 -173 187 -185 279 -17 128 64 225
278 332 88 45 113 64 166 126 15 18 43 26 153 42 74 12 180 26 235 31 55 6
116 13 135 15 19 2 157 3 305 1 203 -2 287 -7 340 -19z m-6767 -1190 c466
-377 1165 -616 1982 -677 309 -23 738 -2 1051 51 64 11 119 20 123 20 3 0 6
-31 6 -70 l0 -69 -37 -10 c-74 -19 -300 -60 -433 -78 -169 -23 -666 -26 -830
-5 -676 86 -1202 266 -1799 615 l-145 85 -72 151 -72 150 74 -50 c41 -28 110
-78 152 -113z m-20424 -374 c-50 -48 -129 -116 -175 -151 l-84 -64 70 64 c39
35 88 82 110 104 38 39 155 133 165 134 3 0 -36 -39 -86 -87z m-264 -216 c0
-2 -8 -10 -17 -17 -16 -13 -17 -12 -4 4 13 16 21 21 21 13z m-260 -171 c0 -2
-10 -9 -22 -15 -22 -11 -22 -10 -4 4 21 17 26 19 26 11z m24886 -355 c50 -67
52 -72 134 -350 22 -74 49 -159 60 -188 14 -37 20 -75 20 -135 l-1 -82 -35 55
c-95 148 -178 329 -230 502 -28 95 -69 295 -78 383 l-7 60 44 -90 c24 -49 66
-119 93 -155z"/>
<path d="M22127 35244 c-3 -3 -38 -6 -79 -6 -58 1 -81 -4 -113 -22 -22 -13
-62 -29 -90 -35 -27 -7 -54 -16 -60 -21 -5 -4 -71 -39 -145 -77 -218 -112
-442 -256 -672 -433 -149 -114 -444 -405 -558 -550 -292 -368 -495 -785 -645
-1318 -24 -86 -25 -118 -5 -110 4 2 51 55 105 118 454 537 807 826 1141 935
43 14 95 34 114 44 72 39 175 61 359 80 234 23 576 22 726 -2 318 -53 559
-111 915 -222 489 -153 652 -190 893 -200 144 -6 149 -6 204 20 32 14 60 29
63 34 3 4 27 22 53 40 64 44 131 130 167 218 32 76 65 258 56 304 -3 14 0 31
6 37 8 8 8 19 0 39 -7 15 -21 69 -32 118 -42 181 -85 281 -177 408 -148 203
-629 388 -1358 522 -310 57 -841 105 -868 79z"/>
<path d="M22228 33233 c7 -3 16 -2 19 1 4 3 -2 6 -13 5 -11 0 -14 -3 -6 -6z"/>
<path d="M22350 33230 c-41 -5 -118 -18 -170 -30 -52 -12 -105 -23 -117 -26
-53 -11 -207 -70 -309 -119 -511 -246 -855 -710 -953 -1285 -40 -230 -38 -511
4 -725 28 -143 103 -419 115 -423 9 -3 11 1 6 14 -8 18 -29 725 -22 731 1 2
34 -77 72 -174 65 -169 153 -345 221 -443 17 -25 72 -90 122 -144 94 -102 111
-136 67 -136 -70 0 -246 -52 -286 -85 -8 -6 -50 -24 -94 -40 -195 -70 -517
-255 -766 -441 -190 -142 -406 -353 -464 -452 -5 -8 84 56 198 142 340 257
602 422 811 514 303 131 461 157 955 157 285 0 344 -3 480 -23 325 -48 526
-93 899 -203 367 -107 394 -117 701 -244 167 -69 305 -124 307 -122 1 2 -125
88 -282 191 -157 104 -285 191 -285 195 0 3 29 23 65 44 119 69 335 301 307
329 -5 5 -57 -25 -123 -71 -129 -91 -268 -165 -349 -186 -92 -25 -138 -20
-232 25 -78 37 -314 114 -475 156 -40 10 -73 21 -73 25 0 3 43 43 95 89 314
275 480 666 436 1030 -17 138 -79 391 -102 416 -10 11 -19 27 -19 35 0 8 -9
25 -20 39 -12 14 -43 60 -71 103 -66 101 -205 247 -305 319 -201 144 -431 220
-669 220 -122 1 -246 -19 -357 -58 -40 -13 -81 -27 -90 -31 -12 -3 -18 0 -18
9 0 37 304 207 470 262 172 57 268 71 500 70 200 0 223 -2 335 -28 521 -122
876 -442 1056 -953 23 -65 55 -156 71 -202 67 -191 103 -449 96 -688 -5 -147
-4 -155 12 -136 39 48 80 294 80 478 0 425 -141 887 -367 1202 -251 350 -625
587 -1038 658 -111 19 -324 27 -425 15z m-457 -1030 c31 -24 44 -78 27 -109
-15 -30 -69 -61 -103 -61 -43 0 -77 40 -77 90 0 23 5 50 11 61 22 41 101 51
142 19z m-270 -173 c112 -51 167 -131 167 -242 0 -78 -13 -122 -53 -182 -38
-56 -117 -108 -179 -116 -60 -8 -135 9 -170 38 -16 14 -40 28 -52 31 -27 6
-72 74 -87 129 -16 57 -6 164 20 217 67 140 211 191 354 125z"/>
<path d="M27489 32700 c-169 -43 -310 -151 -489 -376 -156 -195 -206 -298
-249 -509 -44 -217 -53 -326 -44 -545 7 -178 7 -330 -1 -337 -1 -2 -55 -16
-119 -32 -476 -120 -947 -347 -1252 -603 -168 -140 -173 -165 -19 -89 558 276
1302 500 1579 476 234 -20 465 -126 652 -300 282 -260 363 -636 202 -934 -154
-285 -505 -505 -850 -531 -108 -9 -169 -23 -169 -40 0 -9 129 -20 224 -20 132
1 416 82 606 174 375 181 592 635 494 1033 -20 83 -81 218 -129 284 -38 53
-43 69 -21 69 7 0 46 16 85 36 84 42 182 134 234 221 89 148 100 241 14 121
-164 -231 -434 -352 -555 -250 -20 18 -71 54 -112 82 -41 27 -68 50 -60 50 26
0 145 78 212 140 118 107 211 271 255 446 26 104 23 343 -5 447 -21 76 -40
128 -67 177 -78 147 -117 202 -190 276 -70 70 -95 87 -202 140 -67 32 -122 62
-122 65 -1 4 27 19 62 35 87 39 225 46 309 14 168 -63 338 -230 442 -435 69
-134 163 -438 182 -585 10 -79 20 -92 33 -44 19 70 13 235 -14 368 -92 455
-362 858 -641 958 -66 23 -216 33 -275 18z m-250 -590 c10 -5 26 -28 35 -51
16 -41 16 -43 -2 -62 -30 -29 -91 -26 -119 8 -30 34 -29 60 2 90 25 26 54 31
84 15z m-150 -156 c56 -46 68 -162 27 -250 -19 -42 -32 -55 -71 -74 -56 -27
-131 -32 -146 -10 -18 28 -1 91 63 226 43 91 68 133 80 134 9 0 30 -12 47 -26z"/>
<path d="M14870 29806 c0 -7 26 -23 59 -35 84 -30 326 -154 454 -231 114 -68
435 -295 550 -387 37 -29 67 -60 67 -67 0 -7 -49 -69 -108 -138 -120 -138
-147 -180 -190 -289 -94 -237 -113 -540 -46 -750 20 -64 35 -92 71 -130 25
-27 48 -49 52 -49 3 0 6 80 6 177 1 166 2 183 28 258 14 44 43 109 64 145 41
70 146 181 233 245 106 78 249 105 339 65 73 -34 204 -144 429 -362 275 -266
299 -273 161 -47 -423 696 -1150 1302 -1847 1538 -183 63 -322 87 -322 57z"/>
<path d="M22395 29541 c-171 -61 -340 -151 -575 -306 -286 -187 -438 -327
-618 -567 -109 -146 -128 -178 -109 -178 15 0 280 172 506 329 73 51 137 89
141 84 4 -4 40 -87 80 -183 99 -243 156 -374 195 -450 19 -36 55 -108 81 -160
88 -175 299 -494 480 -726 305 -391 683 -765 1039 -1029 587 -435 1218 -699
1910 -800 729 -106 1500 -77 1933 71 150 51 294 137 373 221 54 56 209 266
292 395 363 560 610 1278 762 2213 33 205 33 205 49 205 23 0 80 -71 162 -205
167 -271 246 -300 188 -68 -42 166 -128 333 -267 520 -114 152 -334 415 -370
441 -63 44 -62 26 4 -109 60 -121 89 -200 89 -241 0 -87 -115 -200 -294 -288
-127 -63 -439 -174 -468 -167 -9 3 -60 -6 -115 -19 -106 -26 -371 -66 -548
-83 -593 -58 -650 -61 -1075 -68 -508 -7 -885 11 -1400 68 -392 43 -884 123
-1290 210 -102 22 -199 41 -216 44 -97 12 -692 185 -1004 290 -135 46 -264 89
-288 95 -62 16 -63 33 -6 92 60 61 281 247 311 261 20 9 143 123 143 132 0 9
-14 5 -95 -24z m1145 -1116 c512 -114 1103 -209 1620 -260 653 -64 1428 -80
1935 -40 94 7 199 14 234 15 36 0 69 4 74 7 5 3 72 12 150 20 258 26 272 28
285 36 7 5 21 5 32 2 16 -5 20 -15 19 -48 0 -23 0 -122 1 -220 2 -377 -48
-547 -204 -702 -79 -79 -175 -145 -281 -194 -101 -47 -156 -75 -161 -83 -3 -4
16 -13 41 -19 25 -6 63 -24 85 -40 79 -57 102 -150 102 -409 0 -185 -18 -321
-54 -398 -76 -161 -299 -247 -738 -282 -650 -53 -1030 -32 -1578 86 -300 64
-495 130 -719 243 -278 139 -629 358 -726 454 -45 44 -57 64 -80 133 -14 45
-33 121 -42 169 -36 209 -4 325 91 325 40 0 49 12 26 32 -193 168 -362 468
-447 793 -30 116 -55 298 -55 399 l0 74 94 -24 c52 -13 185 -44 296 -69z"/>
<path d="M26053 29140 c-108 -28 -182 -40 -304 -50 -89 -7 -156 -17 -152 -21
24 -24 366 -79 490 -79 37 0 143 123 143 167 0 29 0 29 -177 -17z"/>
<path d="M17925 28230 c-10 -15 7 -31 78 -73 118 -72 335 -107 651 -107 158 0
206 3 215 13 14 17 4 27 -25 27 -13 0 -105 16 -206 36 -101 19 -233 39 -295
44 -62 6 -158 21 -215 34 -145 34 -194 40 -203 26z"/>
<path d="M27572 25009 c-46 -5 -201 -27 -345 -48 -321 -49 -446 -61 -652 -62
-88 -1 -207 -4 -265 -8 l-105 -6 75 -18 c108 -25 325 -64 470 -84 177 -24 521
-24 645 1 132 26 259 70 359 124 99 54 117 72 97 96 -15 18 -132 20 -279 5z"/>
<path d="M4121 26514 c-23 -16 -23 -21 -18 -108 4 -72 14 -119 50 -226 142
-428 326 -695 554 -803 64 -30 75 -32 178 -32 96 0 116 3 153 23 197 105 240
349 100 562 -89 135 -258 284 -454 400 -277 164 -492 234 -563 184z m181 -80
c88 -31 282 -127 375 -186 284 -177 448 -372 461 -546 11 -157 -73 -269 -215
-288 -199 -26 -418 156 -567 471 -86 181 -162 402 -180 528 l-7 47 30 0 c16 0
63 -12 103 -26z"/>
<path d="M2817 24943 c-36 -36 82 -316 209 -495 64 -92 93 -115 123 -98 30 16
26 37 -18 94 -100 131 -176 270 -223 411 -13 39 -27 76 -31 83 -9 13 -49 17
-60 5z"/>
<path d="M3080 24695 c-39 -47 156 -380 276 -472 40 -30 78 -28 82 5 3 17 -14
41 -61 92 -100 106 -160 202 -225 363 -13 31 -51 37 -72 12z"/>
<path d="M8834 22949 c-110 -88 -284 -188 -422 -241 -47 -18 -61 -40 -41 -64
10 -12 24 -15 53 -11 61 9 310 138 411 214 78 59 90 72 90 98 0 44 -39 46 -91
4z"/>
<path d="M9090 22904 c-84 -72 -209 -158 -288 -198 -47 -24 -53 -30 -50 -54 2
-21 9 -28 31 -30 52 -6 263 127 386 243 58 56 63 63 52 83 -19 36 -51 25 -131
-44z"/>
<path d="M18990 21273 c-929 -20 -1829 -260 -2465 -658 -251 -157 -414 -289
-686 -553 -967 -941 -2022 -2372 -3091 -4192 -898 -1531 -1968 -3559 -3113
-5902 -126 -258 -230 -466 -232 -464 -2 2 7 75 22 162 14 86 41 268 60 403 68
478 168 1035 300 1676 174 845 299 1492 444 2310 173 970 239 1646 228 2344
-7 461 -28 693 -88 996 -142 711 -464 1286 -942 1676 -551 451 -1206 645
-2112 626 -1207 -26 -2263 -420 -3384 -1263 -919 -690 -1717 -1612 -2346
-2709 -513 -894 -904 -1933 -1080 -2865 -153 -809 -110 -1346 146 -1850 249
-491 620 -856 1129 -1111 427 -214 861 -318 1453 -349 708 -37 1467 137 1922
441 349 232 568 617 526 922 -44 317 -299 540 -616 540 -110 0 -191 -21 -299
-75 -222 -112 -406 -143 -603 -102 -187 38 -277 102 -331 235 -127 310 -146
727 -56 1279 219 1357 1103 3020 2145 4035 453 441 882 715 1219 779 114 22
186 21 193 -1 86 -268 108 -431 108 -783 0 -462 -46 -882 -171 -1550 -65 -347
-174 -890 -243 -1215 -128 -598 -460 -2335 -567 -2969 -224 -1322 -310 -2182
-297 -2965 9 -529 54 -761 212 -1080 188 -379 446 -681 853 -998 702 -548
1601 -887 2415 -910 l208 -6 41 -81 c96 -191 250 -371 413 -482 l84 -57 -41
-56 c-195 -270 -418 -657 -542 -942 -339 -780 -349 -1419 -29 -1901 26 -40 91
-116 143 -169 461 -463 1250 -554 2185 -252 664 214 1312 561 1955 1047 166
125 206 151 212 138 3 -10 14 -174 23 -367 17 -360 29 -467 65 -569 135 -392
485 -635 915 -636 120 0 461 23 597 40 40 5 76 7 80 4 11 -7 577 25 632 36 26
6 77 22 113 36 l64 26 78 -21 c100 -27 152 -27 739 4 499 27 549 32 648 71 59
24 61 24 120 8 145 -40 490 -26 647 26 51 17 105 39 120 49 28 18 31 18 90 -1
178 -56 398 -77 627 -59 141 11 372 45 414 60 12 5 46 5 76 1 30 -4 172 -2
315 6 284 15 342 20 393 38 24 8 50 9 93 2 72 -12 570 9 674 29 39 7 95 24
125 37 51 23 58 24 105 11 125 -33 243 -46 420 -45 255 0 424 24 605 85 l95
33 58 -18 c93 -28 166 -31 447 -14 265 15 348 29 430 71 21 11 37 10 100 -7
61 -17 104 -21 236 -20 198 1 302 14 417 53 88 30 89 30 150 15 140 -35 211
-39 436 -27 406 22 731 60 816 95 32 14 42 13 112 -4 88 -23 192 -25 478 -10
288 16 371 35 491 114 l51 34 84 -33 c122 -49 216 -65 376 -65 300 0 824 51
953 92 149 47 298 173 363 308 67 137 81 247 56 442 -7 49 -9 91 -6 94 3 3 48
-24 100 -60 370 -257 891 -354 1263 -235 392 125 818 490 1263 1082 348 464
642 982 1007 1775 94 203 75 180 303 370 218 183 467 368 812 605 86 59 188
139 227 177 160 158 264 357 308 587 23 121 15 320 -16 418 -66 208 -199 370
-375 455 -104 51 -187 70 -309 70 l-99 0 7 52 c31 251 37 319 32 361 -5 46 -3
51 27 75 569 473 1225 1209 1884 2112 517 708 1129 1670 1200 1884 24 72 27
96 27 221 0 133 -1 145 -32 235 -108 312 -410 558 -782 635 -113 24 -325 24
-435 1 -169 -37 -319 -115 -448 -236 -61 -57 -116 -131 -298 -397 -268 -395
-558 -803 -570 -803 -15 0 -89 52 -89 62 0 12 177 316 353 607 148 244 178
304 208 416 29 107 32 316 5 420 -23 89 -102 254 -155 324 -22 30 -41 58 -41
62 0 4 26 28 58 52 99 78 139 128 332 413 279 412 747 1123 823 1249 205 340
190 685 -44 995 -234 310 -790 579 -1349 652 -141 18 -453 15 -575 -6 -211
-37 -408 -122 -544 -236 -95 -80 -150 -154 -252 -335 -305 -543 -557 -1181
-654 -1649 -47 -228 -44 -352 11 -519 14 -43 24 -80 23 -81 -2 -2 -29 -16 -59
-31 -85 -42 -172 -108 -238 -180 -162 -177 -500 -738 -724 -1203 -79 -163
-261 -559 -301 -653 -18 -44 -246 -361 -411 -575 -131 -167 -583 -714 -592
-714 -9 0 292 564 460 862 177 314 372 671 427 783 27 55 61 145 76 200 23 87
26 119 26 250 0 131 -3 163 -26 250 -81 301 -296 573 -631 797 -363 243 -868
398 -1294 398 -246 0 -442 -40 -672 -138 -77 -33 -140 -56 -140 -52 0 11 308
442 468 655 524 696 952 1197 1388 1625 222 218 324 301 446 366 234 125 382
375 395 672 11 242 -45 428 -200 657 -80 117 -273 311 -402 402 -386 274 -914
445 -1375 446 -182 0 -306 -18 -457 -68 -183 -61 -308 -133 -491 -283 -492
-402 -970 -980 -1629 -1968 -247 -370 -603 -935 -688 -1092 l-28 -52 -64 115
c-123 226 -252 393 -449 585 -386 375 -796 576 -1139 556 -253 -14 -370 -75
-725 -375 -452 -384 -687 -616 -993 -988 l-67 -81 -89 38 c-194 84 -518 185
-731 229 -260 53 -629 72 -815 43 -290 -47 -480 -129 -805 -350 -721 -489
-1264 -1167 -1516 -1895 -35 -102 -50 -136 -56 -127 -2 3 -23 47 -46 98 -35
79 -85 162 -149 251 -11 14 -3 24 58 70 39 30 88 75 110 100 72 84 918 1353
1047 1570 36 61 76 147 94 201 31 91 32 102 32 255 1 156 0 163 -33 257 -43
125 -114 241 -210 341 -267 279 -725 493 -1216 569 -108 16 -188 21 -352 22
-143 0 -210 4 -206 11 4 5 45 57 92 115 675 830 1409 1515 1951 1820 247 139
547 246 788 281 99 14 329 7 385 -12 23 -8 45 -25 58 -45 33 -54 141 -147 214
-186 101 -52 181 -72 300 -71 257 1 453 139 592 418 73 145 107 289 106 455
-1 286 -107 518 -342 751 -139 137 -272 230 -476 330 -490 240 -1291 379
-2085 362z m436 -513 c439 -26 867 -102 1168 -207 239 -83 462 -219 568 -346
95 -115 130 -224 108 -334 -12 -57 -60 -166 -79 -177 -5 -4 -19 9 -30 28 -38
62 -138 144 -224 185 -166 80 -322 106 -591 98 -210 -6 -339 -28 -556 -92
-502 -150 -931 -406 -1482 -887 l-148 -128 0 889 c0 839 1 890 18 895 68 22
509 70 717 79 173 7 367 6 531 -3z m-11671 -1581 c472 -36 844 -159 1159 -384
359 -256 592 -580 751 -1045 78 -229 124 -464 157 -795 21 -207 17 -980 -5
-1225 -40 -436 -85 -789 -148 -1165 -72 -431 -307 -1698 -374 -2020 -369
-1760 -508 -2659 -533 -3437 -21 -629 53 -1093 210 -1328 44 -67 157 -175 169
-163 4 4 131 269 282 588 1892 3993 3575 7141 4780 8940 l67 100 0 -1761 0
-1762 -129 -213 c-897 -1492 -2027 -3560 -3064 -5609 l-261 -515 -94 -110
c-383 -449 -662 -938 -736 -1290 -10 -44 -19 -90 -22 -103 -4 -22 -6 -22 -187
-22 -275 0 -491 28 -772 100 -423 108 -784 268 -1160 515 -133 88 -305 218
-394 298 l-41 37 0 3058 0 3058 70 360 c82 418 79 404 175 859 330 1566 415
2171 402 2872 -6 329 -22 475 -78 698 -93 369 -238 550 -493 615 l-71 18 -3
424 -2 425 102 -4 c57 -2 166 -8 243 -14z m21433 -674 c57 -8 143 -24 193 -36
l89 -21 0 -831 0 -832 -106 -115 c-806 -878 -1713 -2127 -2509 -3455 -263
-440 -567 -1009 -787 -1475 l-68 -145 0 1663 0 1664 127 216 c555 950 1170
1871 1617 2421 314 387 709 771 894 869 159 84 332 108 550 77z m-25717 -4338
c-275 -760 -416 -1595 -361 -2148 43 -428 184 -801 365 -967 l55 -51 0 -359 0
-359 -44 -6 c-59 -8 -378 9 -536 28 -785 97 -1366 440 -1696 1001 -215 366
-268 759 -179 1329 89 567 245 1124 477 1705 438 1098 1036 2042 1824 2884
l149 159 3 -1527 2 -1527 -59 -162z m14377 2357 l22 -6 0 -1020 0 -1020 -36
-60 c-47 -76 -127 -137 -225 -169 -67 -22 -91 -24 -259 -24 -143 0 -204 4
-269 19 -262 57 -498 180 -586 305 -28 39 -30 49 -30 124 2 232 242 911 491
1387 147 281 185 339 242 381 105 75 231 100 462 94 91 -2 175 -7 188 -11z
m16500 0 l22 -6 0 -1018 0 -1017 -38 -59 c-69 -106 -149 -158 -291 -190 -119
-27 -370 -15 -522 24 -284 73 -505 208 -554 337 -21 53 -18 90 20 261 47 209
161 539 286 828 118 271 324 663 381 723 58 60 176 109 308 127 47 6 359 -2
388 -10z m-9368 -819 c171 -222 234 -399 175 -489 -10 -15 -77 -66 -149 -113
-72 -47 -148 -99 -168 -115 l-38 -30 0 479 1 478 55 -60 c30 -33 86 -101 124
-150z m-1984 -2796 c-155 -300 -200 -534 -137 -714 11 -32 18 -62 15 -66 -11
-19 -161 -9 -250 16 -112 32 -327 137 -419 204 -158 115 -308 290 -380 443
-88 187 -86 317 11 640 48 162 105 301 208 505 47 95 86 175 86 178 0 10 -89
5 -163 -9 -221 -43 -438 -197 -635 -454 -311 -404 -485 -916 -508 -1490 -20
-497 88 -855 350 -1155 l68 -77 76 41 c180 98 515 292 907 526 231 138 513
305 628 371 l207 121 0 -453 0 -453 -147 -88 c-469 -280 -888 -557 -1037 -687
l-40 -35 82 -104 c45 -57 127 -160 182 -229 123 -152 164 -213 235 -352 170
-331 201 -658 99 -1038 -24 -88 -93 -271 -129 -341 l-16 -29 -62 44 c-34 24
-83 54 -108 66 l-46 22 28 52 c118 217 50 497 -166 688 -91 81 -249 165 -512
275 -124 51 -247 76 -388 76 -137 1 -211 -14 -316 -67 l-66 -33 -17 54 c-9 29
-20 53 -24 53 -8 0 -378 -302 -525 -428 l-97 -83 0 659 0 659 40 27 c22 14 40
29 40 32 0 3 -18 29 -40 56 l-40 51 0 2198 0 2199 104 78 c162 119 348 232
446 268 235 89 558 83 945 -16 274 -70 549 -179 832 -332 80 -43 149 -78 152
-78 4 0 43 48 86 107 123 165 298 386 404 510 l96 111 3 -1198 2 -1198 -64
-123z m6304 961 c36 -6 89 -15 118 -21 l52 -10 0 -1353 0 -1353 -71 -149
c-257 -540 -458 -1046 -525 -1318 -40 -166 -68 -416 -46 -416 5 0 74 33 153
73 148 76 277 151 405 238 40 27 76 49 79 49 3 0 5 -274 5 -609 l0 -609 -51
-22 -52 -22 -126 60 c-149 71 -225 102 -426 172 -249 87 -306 118 -409 224
-49 50 -114 122 -145 161 -71 87 -179 162 -281 195 -62 21 -95 25 -190 25
-172 0 -290 -42 -452 -158 -74 -53 -78 -55 -89 -36 -18 34 -38 149 -45 255
-26 399 189 1167 603 2154 159 378 235 571 230 577 -8 7 -156 -109 -302 -237
-385 -338 -1000 -1021 -1567 -1739 l-168 -212 0 731 0 731 182 212 c983 1142
1687 1828 2235 2176 214 136 347 198 483 226 78 16 310 19 400 5z m-12679 -80
c233 -24 436 -82 644 -184 305 -149 446 -312 405 -466 -7 -25 -85 -166 -175
-315 -430 -716 -773 -1347 -984 -1815 -263 -581 -411 -1101 -374 -1315 57
-333 334 -248 857 265 239 235 471 494 729 815 66 83 126 157 134 165 11 12
13 -83 13 -590 l0 -605 -101 -115 c-188 -213 -487 -524 -651 -677 -225 -209
-212 -199 -288 -207 -99 -11 -286 -44 -370 -66 l-74 -19 -56 53 c-50 48 -204
166 -272 209 l-28 17 0 2354 0 2353 21 27 c24 31 89 70 150 91 97 33 248 42
420 25z m16529 -5 c287 -34 560 -130 769 -269 217 -146 293 -279 232 -411 -10
-22 -99 -175 -198 -340 -682 -1138 -1071 -1931 -1248 -2546 -78 -270 -98 -488
-56 -600 86 -227 323 -143 774 275 193 179 536 560 810 901 66 83 124 154 129
159 4 6 8 -263 8 -596 l0 -607 -164 -183 c-319 -357 -646 -679 -884 -870 l-96
-76 -26 18 c-129 91 -377 168 -597 185 l-83 7 0 2408 0 2407 36 37 c100 103
296 136 594 101z m-8310 -1012 c-1 -5 -9 -24 -20 -43 l-19 -35 -1 36 c0 20 3
39 7 42 9 9 33 9 33 0z m11100 -59 c78 -17 165 -66 228 -127 97 -94 96 -121
-12 -307 -120 -209 -330 -542 -550 -873 l-191 -289 -3 641 -2 641 71 107 c40
59 86 120 103 136 87 80 208 105 356 71z m-4401 -951 l-48 -118 -1 -1597 c0
-1082 -3 -1598 -10 -1598 -21 0 -169 80 -261 141 -110 74 -269 229 -317 310
-77 132 -95 239 -76 464 38 461 256 1252 558 2023 50 127 56 152 56 216 l0 72
71 102 c40 56 73 102 74 102 1 0 -19 -53 -46 -117z m-12483 -260 c31 -51 54
-99 51 -105 -3 -7 -48 -76 -101 -153 l-96 -139 0 344 0 345 45 -100 c25 -55
70 -142 101 -192z m-4060 -2170 c-2 -2 -66 5 -142 16 -117 17 -404 41 -495 41
l-26 0 18 123 c77 512 280 1200 566 1924 l78 197 3 -1148 c1 -632 0 -1151 -2
-1153z m9041 -1330 c-2 -2 -39 7 -83 19 -66 18 -107 22 -249 22 -152 1 -178
-2 -245 -22 -121 -39 -195 -80 -255 -143 -53 -56 -105 -145 -105 -181 0 -10
-3 -18 -6 -18 -4 0 -41 21 -83 46 -162 98 -233 185 -232 287 0 179 573 1599
1157 2867 l99 215 3 -1544 c1 -849 1 -1546 -1 -1548z m-2834 977 c89 -28 369
-163 430 -207 56 -41 107 -114 107 -153 0 -36 -18 -59 -140 -185 -469 -484
-895 -1224 -1239 -2149 -309 -831 -460 -1496 -507 -2227 l-6 -96 -146 -7
c-251 -12 -421 -45 -563 -108 l-67 -30 -52 27 -53 27 6 256 c4 240 21 421 56
605 5 27 5 45 1 40 -3 -4 -29 -37 -56 -73 -195 -259 -593 -660 -861 -869 l-43
-32 -57 18 c-48 15 -88 18 -238 16 -260 -2 -356 -24 -481 -109 l-64 -44 -47
31 c-73 46 -164 70 -289 77 l-111 7 -57 44 c-107 83 -178 196 -216 346 -27
104 -37 322 -21 470 54 500 307 1142 666 1686 134 202 239 334 394 492 279
286 468 376 710 338 104 -16 188 -46 428 -153 233 -104 291 -143 338 -228 27
-50 30 -63 29 -145 -1 -140 -63 -386 -155 -617 -181 -456 -448 -801 -728 -943
-63 -32 -208 -70 -302 -80 -75 -8 -219 8 -315 35 l-64 17 -19 -52 c-91 -244
-143 -653 -102 -812 26 -103 107 -130 245 -79 433 157 1257 1075 1615 1801 61
122 80 145 119 145 16 0 34 42 107 248 296 833 665 1623 991 2119 149 228 341
469 421 530 74 56 200 65 336 23z m-6481 -16 c480 -59 899 -215 1215 -450 96
-72 228 -203 272 -271 l32 -50 127 42 c245 82 427 115 647 115 457 0 753 -149
836 -422 25 -82 22 -199 -6 -281 -17 -49 -35 -54 -35 -11 0 60 -82 159 -170
204 -236 121 -673 72 -1058 -117 -62 -31 -114 -59 -117 -63 -2 -4 3 -61 11
-126 19 -138 14 -385 -10 -549 -112 -758 -521 -1644 -1158 -2503 -611 -825
-1460 -1593 -2313 -2092 -314 -183 -800 -403 -1095 -494 -707 -218 -1263 -177
-1551 115 -85 87 -142 198 -171 336 -37 181 -16 429 58 688 104 359 387 895
665 1256 232 302 594 674 1132 1159 l326 295 62 175 c34 96 186 519 339 940
153 421 289 798 304 838 15 44 21 70 13 66 -6 -4 -64 -42 -127 -85 -531 -358
-1246 -1085 -1601 -1627 -94 -143 -184 -328 -210 -431 -27 -107 -24 -206 10
-274 39 -81 147 -127 300 -127 l75 0 -30 -31 c-44 -46 -170 -105 -255 -119
-88 -15 -248 -8 -334 14 -33 9 -102 37 -154 62 -205 101 -357 315 -377 532
-26 280 178 727 545 1192 545 691 1377 1364 2181 1764 411 204 766 316 1095
346 125 11 371 4 527 -16z m3537 -481 c0 -452 -1 -457 -18 -408 -27 74 -68
152 -116 220 -47 66 -162 180 -225 221 -22 15 -40 29 -40 31 0 15 106 125 239
249 85 79 156 144 158 144 1 0 3 -206 2 -457z m9607 291 c18 -9 66 -55 107
-103 236 -275 325 -334 726 -476 214 -76 353 -136 497 -216 336 -187 460 -318
526 -559 20 -76 23 -106 22 -290 0 -185 -2 -217 -27 -330 -29 -134 -87 -338
-215 -760 -375 -1234 -463 -1923 -274 -2132 49 -55 104 -80 185 -86 37 -3 67
-9 67 -14 0 -21 -85 -98 -133 -119 -47 -22 -65 -24 -187 -23 -87 1 -151 6
-180 15 l-44 15 -1 174 0 175 -32 67 c-39 83 -103 147 -186 187 -77 38 -158
51 -314 51 -76 0 -124 4 -128 11 -4 6 -7 65 -7 132 0 136 16 221 103 572 69
274 141 519 254 855 101 300 210 651 250 806 60 232 79 445 51 584 -45 222
-158 338 -416 427 -134 46 -130 47 -130 -39 0 -197 -45 -506 -111 -765 -122
-483 -428 -1239 -674 -1669 -86 -149 -231 -366 -325 -484 -113 -143 -311 -343
-390 -395 -146 -96 -374 -127 -657 -90 -422 56 -953 291 -1183 524 -178 180
-220 316 -220 717 0 447 94 841 298 1249 282 565 564 915 902 1118 169 102
302 118 490 58 112 -35 470 -175 540 -211 92 -47 162 -134 176 -217 11 -70
-35 -299 -98 -487 -86 -259 -267 -575 -449 -786 -146 -170 -394 -316 -593
-351 -79 -13 -259 0 -355 27 -29 8 -56 13 -59 10 -18 -19 -44 -189 -49 -327
-7 -183 7 -269 64 -389 46 -96 177 -232 268 -278 157 -78 285 -64 457 50 280
187 578 597 893 1228 191 380 240 498 304 720 74 257 86 327 86 510 -1 152 -3
171 -28 246 -51 154 -141 258 -297 344 -136 75 -155 136 -90 292 60 143 179
281 334 384 97 64 183 80 252 48z m4878 -374 c116 -29 238 -92 302 -154 52
-50 54 -54 54 -105 0 -146 -55 -408 -236 -1135 -74 -296 -133 -540 -131 -543
3 -2 83 56 178 129 270 206 554 405 743 520 101 61 140 64 184 13 55 -62 52
-179 -8 -312 -38 -84 -104 -152 -230 -236 -477 -320 -1075 -792 -1180 -931
-21 -28 -78 -137 -125 -241 -353 -774 -634 -1272 -977 -1731 -321 -430 -608
-700 -885 -832 -75 -36 -82 -37 -203 -40 -340 -9 -650 145 -771 385 -32 63
-34 73 -34 168 0 119 17 167 115 329 139 230 316 441 655 782 280 281 358 353
840 778 187 165 382 342 433 393 105 105 133 154 216 384 58 161 216 644 216
660 0 7 -22 -23 -48 -67 -213 -350 -524 -745 -822 -1045 -345 -347 -436 -398
-659 -370 -225 29 -409 109 -532 232 -81 81 -96 125 -81 237 45 328 221 896
399 1286 149 326 388 701 478 749 60 33 227 29 348 -7 164 -49 292 -134 317
-212 14 -41 5 -61 -86 -191 -246 -352 -584 -1117 -584 -1321 0 -215 361 195
880 998 243 375 615 988 764 1256 77 140 106 172 173 190 62 18 193 11 297
-16z m-10989 -394 c89 -24 215 -89 260 -135 59 -61 55 -80 -50 -284 -167 -324
-306 -582 -328 -606 -80 -87 -318 -94 -477 -15 -38 19 -81 49 -96 67 -26 30
-26 35 -21 117 14 207 180 721 260 807 27 28 68 48 142 67 39 10 251 -3 310
-18z m2085 -371 c98 -24 170 -56 259 -115 283 -190 472 -560 446 -875 -33
-404 -444 -1333 -892 -2015 -218 -331 -380 -525 -494 -593 -70 -42 -67 -42
-177 -3 -85 30 -209 52 -342 61 -121 8 -367 -10 -490 -35 l-95 -20 -17 23
c-30 38 -55 100 -69 172 -16 79 -19 456 -6 643 l8 114 -87 -129 c-310 -457
-578 -733 -769 -792 -175 -55 -417 -28 -600 67 -94 49 -196 149 -218 216 -94
278 210 1506 527 2131 80 156 99 176 194 196 78 16 249 6 337 -20 148 -44 274
-130 289 -198 9 -38 -2 -65 -102 -279 -392 -832 -555 -1439 -410 -1528 43 -26
155 47 269 179 141 162 329 435 521 755 193 322 236 406 269 531 39 151 104
348 140 428 64 142 117 176 269 175 113 -2 232 -30 336 -79 79 -38 163 -109
167 -140 1 -11 -24 -96 -55 -190 -187 -561 -429 -1826 -357 -1871 45 -28 403
469 633 881 88 156 272 533 324 660 85 210 155 451 188 651 25 146 23 390 -4
516 -37 178 -127 317 -267 413 -30 21 -55 40 -55 42 0 9 79 36 125 43 58 9
128 4 205 -15z m-6447 -173 c9 -4 32 -37 51 -74 l33 -67 -41 -33 c-22 -18 -89
-79 -147 -136 l-107 -103 -11 33 c-21 60 -35 229 -25 304 l9 69 40 6 c56 9
177 9 198 1z m10807 -3625 l0 -164 -122 -6 c-145 -8 -171 -20 -176 -83 -2 -21
-1 -59 3 -83 l7 -44 144 6 145 6 -3 -142 -3 -142 -133 -6 c-73 -3 -134 -8
-136 -10 -1 -2 0 -45 3 -96 8 -127 10 -129 156 -125 l115 3 0 -160 c0 -88 -4
-162 -8 -165 -4 -2 -94 -8 -200 -12 l-192 -7 0 687 0 686 28 1 c15 1 97 5 182
9 85 3 163 7 173 8 16 2 17 -12 17 -161z m320 2 l0 -149 -27 0 c-16 0 -38 -3
-50 -6 l-23 -6 0 158 0 159 50 -3 50 -4 0 -149z m-1216 24 c4 -49 9 -120 12
-159 l5 -71 -68 -6 c-37 -4 -83 -7 -100 -7 l-33 0 0 160 0 159 58 4 c31 2 71
4 89 5 l31 2 6 -87z m-424 -613 l0 -679 -32 -5 c-18 -3 -102 -8 -185 -11 -144
-6 -153 -5 -153 12 2 76 -56 1019 -62 1021 -4 2 -8 75 -8 163 l0 159 78 1 c65
2 264 11 340 17 l22 2 0 -680z m700 54 c0 -557 -2 -615 -16 -604 -23 20 -61
90 -73 135 -13 52 -54 792 -48 870 2 33 14 79 25 101 20 39 88 114 104 114 4
0 8 -277 8 -616z m-1390 426 l0 -160 -69 0 -69 0 -6 63 c-3 34 -8 106 -11 160
l-6 97 80 0 81 0 0 -160z m-560 -19 l0 -158 -31 -7 c-17 -3 -66 -6 -109 -6
-141 0 -165 -21 -155 -136 l7 -75 144 7 144 7 0 -140 0 -140 -67 -6 c-38 -4
-99 -7 -136 -7 l-69 0 4 -94 c4 -133 8 -136 155 -136 l113 0 0 -159 0 -159
-72 -6 c-40 -3 -130 -9 -201 -12 l-127 -7 2 689 3 689 115 6 c63 3 152 6 198
7 l82 2 0 -159z m318 2 l3 -153 -51 0 -50 0 0 156 0 155 48 -3 47 -3 3 -152z
m-1298 70 c0 -21 14 -274 30 -563 16 -289 30 -558 30 -598 0 -119 -35 -159
-152 -169 l-58 -6 0 681 0 681 43 4 c111 10 107 11 107 -30z m-413 -80 c-2
-21 -4 -6 -4 32 0 39 2 55 4 38 2 -18 2 -50 0 -70z m783 -525 l0 -621 -26 24
c-33 30 -72 111 -79 164 -11 90 -46 813 -41 853 3 23 15 61 27 85 21 40 93
117 111 117 4 0 8 -280 8 -622z m-1530 -98 l0 -680 -53 0 -53 0 -33 605 c-19
332 -31 623 -28 645 9 66 62 109 135 110 l32 0 0 -680z m-802 654 l22 -6 0
-693 0 -693 -67 -8 c-84 -10 -375 -10 -391 0 -9 5 -12 177 -12 696 l0 688 68
7 c37 3 74 8 82 9 28 6 275 6 298 0z m1294 -284 c95 -124 191 -257 215 -296
l43 -72 -2 -281 -3 -280 -193 255 c-116 153 -211 288 -235 337 l-42 82 -2 270
-3 270 25 -30 c14 -16 102 -131 197 -255z m-2379 128 c22 -343 70 -1258 66
-1261 -2 -3 -48 -7 -101 -11 l-98 -6 0 679 0 680 28 4 c15 2 43 5 63 6 l36 1
6 -92z m-395 -500 c-1 -500 -3 -550 -11 -395 l-10 178 -111 -6 c-245 -13 -256
-14 -256 -38 0 -12 7 -132 15 -267 8 -135 15 -253 15 -262 0 -15 -9 -18 -55
-18 l-55 0 0 681 c0 643 1 680 18 677 15 -3 18 -29 30 -243 7 -132 15 -241 16
-242 4 -4 358 15 362 19 1 2 -4 109 -11 238 -8 129 -15 238 -15 243 0 4 16 7
35 7 l35 0 -2 -572z m1866 423 c65 -127 95 -297 96 -543 0 -178 -17 -278 -65
-375 -32 -65 -110 -153 -136 -153 -5 0 -9 273 -9 607 l0 607 40 -39 c21 -21
55 -68 74 -104z m-2584 -571 l0 -680 -50 0 -50 0 0 38 c0 20 -16 312 -35 647
-19 336 -35 625 -35 643 l0 32 85 0 85 0 0 -680z m1490 108 c0 -559 0 -571
-19 -554 -31 28 -78 126 -100 206 -34 129 -45 229 -45 420 1 204 18 299 70
387 24 41 81 113 90 113 2 0 4 -257 4 -572z m-2150 383 l0 -178 -110 -5 c-126
-5 -151 -17 -185 -84 -17 -34 -20 -57 -18 -189 2 -234 29 -352 89 -392 23 -15
47 -18 126 -17 l98 2 0 -178 0 -179 -57 -7 c-70 -8 -274 2 -326 16 l-37 11 2
671 3 672 32 8 c55 14 172 25 281 27 l102 1 0 -179z m278 153 l31 -6 -5 -87
c-3 -47 -7 -119 -10 -158 -6 -73 -6 -73 -35 -73 l-29 0 0 165 c0 91 4 165 9
165 5 0 22 -3 39 -6z m-1284 -66 c3 -13 19 -296 37 -629 l33 -606 -20 -34
c-26 -45 -76 -69 -141 -69 l-53 0 0 680 0 680 70 0 c64 0 70 -2 74 -22z
m-1156 -710 l-3 -683 -52 -3 -53 -3 0 33 c-1 18 -16 298 -34 621 -19 323 -31
598 -28 610 3 12 12 32 20 45 23 36 43 44 145 61 4 0 6 -306 5 -681z m10786
610 c16 -211 16 -208 -10 -208 l-24 0 0 140 c0 114 3 140 14 140 11 0 16 -19
20 -72z m-10313 -221 c106 -138 210 -280 231 -314 l38 -63 0 -285 0 -286 -48
63 c-363 477 -357 469 -402 578 l-30 73 0 249 c0 153 4 247 9 243 6 -3 96
-119 202 -258z m1049 -284 l-1 -548 -24 30 c-113 137 -168 580 -104 832 10 39
28 91 40 115 21 41 76 118 85 118 2 0 4 -246 4 -547z m-2240 517 c20 -11 20
-18 19 -613 l0 -602 -26 83 -27 83 -175 -7 c-97 -4 -187 -10 -201 -14 -23 -6
-27 -16 -51 -141 l-27 -134 -1 673 -1 672 68 1 c37 1 121 5 187 9 137 9 206 6
235 -10z m-1620 -97 c0 -21 11 -234 25 -473 14 -239 25 -440 25 -447 0 -7 9
-22 20 -33 17 -17 33 -20 115 -20 l95 0 0 -169 0 -169 -52 -6 c-29 -3 -115 -8
-190 -12 l-138 -7 0 687 0 686 50 0 50 0 0 -37z m10554 -5 c3 -24 8 -89 11
-145 l5 -103 -25 0 -25 0 0 138 c0 76 3 142 7 145 14 15 22 5 27 -35z m-10874
-600 c0 -631 -1 -633 -20 -608 -53 67 -57 94 -89 671 -17 299 -31 547 -31 551
0 4 28 9 63 11 34 2 65 4 70 5 4 1 7 -283 7 -630z m8779 17 c12 -218 14 -312
7 -317 -35 -24 -36 -14 -35 335 1 188 4 331 6 317 2 -14 12 -164 22 -335z
m4786 89 c9 -80 15 -148 11 -151 -7 -8 -91 -22 -133 -22 l-33 -1 0 154 0 155
38 4 c20 2 51 4 68 5 l31 2 18 -146z m-10611 -346 c21 -367 22 -348 -9 -348
l-25 0 1 363 c1 409 9 405 33 -15z m8026 350 c1 -7 9 -74 18 -150 l18 -136
-43 -6 c-24 -3 -63 -9 -88 -12 l-45 -6 0 161 0 161 70 0 c49 0 70 -4 70 -12z
m-9810 -417 l0 -369 -87 -4 c-49 -2 -91 0 -94 5 -4 5 -36 4 -77 -2 -39 -6 -76
-11 -82 -11 -7 0 -10 52 -8 168 l3 167 61 3 c72 3 66 15 84 -158 7 -63 16
-118 19 -123 4 -4 45 150 92 343 46 192 85 350 87 350 1 0 2 -166 2 -369z
m1180 2 c60 -164 105 -301 102 -305 -4 -3 -55 -8 -115 -10 l-107 -3 1 320 c0
176 3 315 5 308 3 -6 54 -146 114 -310z m2830 175 c0 -2 11 -68 25 -148 14
-80 25 -148 25 -152 0 -6 -154 -58 -173 -58 -4 0 -7 78 -7 174 l0 175 43 4
c73 6 87 7 87 5z m8410 -303 c39 -20 50 -43 50 -107 0 -55 -16 -90 -54 -117
-19 -14 -19 -14 2 -22 55 -21 66 -130 19 -201 -44 -66 -168 -100 -301 -84
l-57 8 3 51 3 52 90 6 c50 3 98 9 108 14 22 9 37 37 37 69 0 32 -26 40 -95 31
-29 -3 -55 -2 -58 2 -3 5 -3 27 0 50 l5 40 66 7 c79 8 92 17 92 63 l0 35 -97
-4 -98 -3 -3 52 c-3 48 -1 53 20 57 90 20 231 20 268 1z m-423 -31 c45 -34 57
-69 56 -169 -2 -222 -56 -321 -189 -346 -63 -12 -190 -7 -204 7 -5 5 -6 28 -3
50 l5 41 87 6 c105 6 115 10 135 52 23 47 20 56 -11 39 -36 -18 -116 -18 -152
1 -45 23 -65 76 -58 157 12 140 75 190 234 185 55 -2 79 -7 100 -23z m-408 -3
c17 -11 9 -80 -11 -93 -7 -4 -41 -8 -75 -8 -81 0 -108 -11 -122 -51 -16 -48
-15 -49 32 -33 49 18 115 13 152 -12 33 -22 49 -79 41 -147 -17 -132 -82 -190
-215 -191 -98 -1 -135 18 -163 82 -18 39 -20 60 -15 142 9 178 54 274 142 305
44 16 212 20 234 6z m-419 -40 c0 -16 -3 -43 -6 -60 l-6 -31 -98 0 c-93 0 -98
-1 -104 -22 -11 -41 -7 -47 42 -53 65 -9 95 -22 127 -55 50 -52 44 -154 -12
-221 -53 -62 -160 -90 -286 -75 l-56 7 5 37 c11 80 9 78 58 74 64 -5 154 15
166 38 15 28 12 67 -6 74 -9 3 -30 6 -47 6 -64 0 -108 13 -122 34 -11 18 -10
39 4 134 10 62 21 116 25 120 7 6 65 10 279 20 35 2 37 0 37 -27z m-820 -10
c56 -11 100 -57 100 -104 0 -50 -17 -98 -45 -127 -21 -22 -23 -28 -11 -33 29
-11 49 -67 43 -124 -11 -109 -58 -144 -203 -151 -103 -5 -149 6 -185 44 -46
49 -22 189 37 216 l24 11 -22 25 c-19 19 -23 35 -23 86 0 97 36 138 135 155
72 12 96 12 150 2z m-430 -36 c52 -27 65 -66 64 -190 -1 -169 -39 -271 -116
-311 -43 -22 -141 -35 -215 -27 l-63 6 0 47 0 48 87 7 c104 9 129 18 143 58
15 44 13 47 -21 30 -45 -22 -132 -13 -164 17 -37 35 -48 89 -36 168 12 79 32
109 91 140 54 27 183 31 230 7z m-437 -16 c38 -19 57 -52 57 -97 0 -68 -25
-111 -121 -208 -81 -81 -87 -90 -62 -88 15 2 61 5 102 7 l74 5 -6 -66 c-4 -36
-8 -66 -9 -67 -2 -2 -90 -6 -197 -10 l-194 -7 7 58 7 58 124 127 c83 84 125
134 125 149 0 21 -3 22 -102 19 l-103 -3 -3 56 -3 56 53 10 c75 14 225 14 251
1z m-1556 -20 c54 -26 98 -79 119 -143 13 -39 15 -73 11 -160 -9 -197 -69
-306 -204 -375 -55 -28 -60 -27 -68 10 -6 28 -3 35 24 56 69 55 111 189 111
361 0 114 -14 163 -56 198 -20 16 -24 26 -19 47 9 32 25 34 82 6z m1108 -3
c64 -27 86 -116 66 -269 -15 -110 -34 -164 -73 -204 -48 -49 -145 -71 -258
-58 l-60 7 0 47 0 48 89 6 c48 4 96 9 105 13 18 7 46 54 46 78 0 13 -3 13 -27
0 -16 -7 -51 -14 -80 -14 -92 0 -142 70 -128 178 14 104 40 142 112 167 50 18
165 19 208 1z m-445 -24 c53 -26 70 -70 70 -177 -1 -181 -42 -289 -125 -326
-80 -36 -259 -37 -272 -3 -3 8 -2 29 1 48 l6 33 91 5 c101 6 122 18 138 76
l10 32 -29 -15 c-37 -19 -113 -19 -150 0 -40 20 -60 63 -60 125 0 113 42 186
120 208 59 17 161 14 200 -6z m-1630 -18 c9 -23 5 -30 -34 -69 -52 -50 -79
-124 -96 -263 -18 -138 0 -234 54 -284 24 -21 26 -28 16 -52 -8 -22 -14 -26
-33 -20 -75 23 -139 84 -163 158 -31 91 -19 267 27 372 24 57 92 130 149 159
58 31 68 31 80 -1z m-628 5 c81 -17 139 -52 200 -118 79 -84 101 -147 96 -266
-3 -69 -10 -101 -27 -134 -32 -61 -117 -149 -172 -176 -93 -48 -212 -52 -307
-12 -29 12 -43 12 -107 -2 -41 -8 -77 -13 -79 -10 -3 3 -1 36 5 74 9 66 8 73
-18 130 -24 52 -28 73 -28 150 0 78 4 98 29 152 30 65 105 147 164 177 39 20
127 44 164 45 15 1 51 -4 80 -10z m1458 -53 c0 -67 -15 -76 -120 -76 -82 0
-88 -1 -94 -22 -11 -41 -7 -45 46 -52 70 -10 116 -33 139 -70 36 -60 15 -170
-42 -223 -52 -48 -159 -72 -263 -59 l-56 7 0 37 c0 75 3 77 88 78 104 1 142
21 142 76 0 31 -7 34 -102 43 -97 9 -100 15 -77 161 9 64 21 120 26 125 4 4
55 10 113 12 58 1 126 4 153 5 l47 2 0 -44z m-511 18 c92 -19 119 -157 44
-225 l-29 -25 23 -17 c42 -32 49 -140 14 -205 -42 -77 -296 -96 -361 -27 -46
49 -34 162 23 211 l32 28 -24 24 c-21 21 -23 30 -19 88 5 81 27 113 94 136 50
17 146 23 203 12z m-1571 -96 c-8 -13 -88 -148 -177 -300 l-163 -278 -59 0
-59 0 45 75 c24 42 104 177 176 300 l132 225 60 0 c59 0 59 0 45 -22z m5028
-70 c-4 -23 -8 -43 -9 -44 -1 -1 -51 -3 -112 -5 l-110 -4 3 40 c2 22 9 43 15
47 7 4 59 8 116 8 l104 0 -7 -42z m-7305 2 c14 -8 19 -21 19 -48 0 -51 -16
-69 -69 -75 -62 -8 -81 5 -81 51 0 60 14 71 98 81 7 0 22 -4 33 -9z m-242 -52
c0 -18 -8 -112 -18 -208 -10 -96 -16 -178 -14 -182 2 -5 17 -8 32 -8 26 0 29
-4 36 -46 3 -25 5 -48 2 -50 -2 -2 -29 -9 -59 -14 -69 -13 -126 3 -147 42 -14
24 -13 50 5 253 15 167 24 229 35 236 8 5 40 9 72 9 l57 0 -1 -32z m-639 -5
c0 -5 -11 -125 -25 -268 -14 -143 -25 -261 -25 -262 0 -2 -27 -3 -60 -3 -58 0
-60 1 -60 27 0 24 -1 25 -18 10 -10 -9 -39 -26 -66 -38 -104 -46 -176 14 -176
146 0 176 71 255 217 243 l52 -5 6 73 c6 64 10 73 29 77 38 8 126 7 126 0z
m-462 -52 c4 -60 -16 -81 -79 -81 -57 0 -75 21 -64 73 11 51 22 58 84 55 l56
-3 3 -44z m3016 21 c6 -11 -27 -162 -52 -233 -55 -157 -136 -262 -226 -292
-75 -26 -104 -23 -112 11 -3 15 -7 32 -9 39 -2 6 15 19 38 28 23 9 53 25 67
35 l25 20 -31 0 c-17 0 -38 8 -47 18 -9 10 -30 82 -47 167 -17 83 -32 155 -34
160 -5 13 -13 -10 -21 -57 -5 -35 -9 -38 -38 -39 -18 0 -48 -6 -67 -13 -38
-14 -40 -21 -55 -178 l-6 -67 -64 -6 c-35 -4 -67 -5 -72 -2 -12 7 21 365 35
379 5 5 31 8 58 6 42 -3 49 -6 52 -25 3 -21 4 -21 51 8 52 33 121 49 121 30 0
-7 4 -10 8 -7 4 2 39 6 77 7 l70 3 6 -40 c4 -21 12 -85 19 -141 8 -71 16 -103
25 -103 18 0 53 107 67 206 l12 83 40 4 c80 7 105 7 110 -1z m-3472 -67 c-2
-33 -7 -79 -12 -103 l-8 -43 22 19 c65 60 150 69 197 23 16 -16 29 -40 29 -53
0 -28 -19 -231 -26 -275 l-5 -33 -71 0 -71 0 7 73 c4 39 9 98 13 130 5 54 4
57 -17 57 -12 0 -35 -8 -50 -17 -25 -14 -30 -25 -35 -72 -3 -31 -9 -83 -13
-116 l-7 -60 -68 -5 c-38 -3 -70 -3 -71 0 -2 3 7 115 20 250 13 135 23 253 24
262 0 13 12 18 53 21 97 7 92 10 89 -58z m-624 33 c19 -19 14 -76 -8 -98 -23
-23 -98 -28 -118 -8 -17 17 -15 78 5 100 19 21 102 25 121 6z m-1457 -9 c63
-14 132 -76 148 -135 7 -22 14 -122 18 -224 5 -165 4 -190 -12 -223 -27 -58
-85 -104 -147 -116 -90 -18 -347 -25 -398 -11 -55 15 -120 78 -138 135 -7 22
-16 117 -19 215 -7 195 -1 229 49 285 44 51 95 65 259 74 79 4 154 9 166 10
12 0 45 -4 74 -10z m4740 -27 c20 -22 29 -43 29 -67 0 -79 -49 -119 -163 -131
-73 -7 -93 -16 -82 -34 6 -10 32 -11 106 -6 l97 6 7 -41 c4 -22 3 -44 -1 -49
-33 -29 -195 -49 -259 -31 -23 6 -54 24 -70 41 -26 28 -30 39 -33 107 -7 122
23 188 102 225 33 15 60 18 139 16 97 -3 99 -3 128 -36z m-396 -14 c-35 -185
-84 -306 -137 -338 -26 -16 -50 -20 -120 -20 -48 0 -89 4 -92 9 -3 5 -19 80
-36 168 -16 87 -32 166 -34 175 -3 14 8 18 71 23 40 4 76 5 79 3 2 -3 9 -59
15 -124 14 -158 16 -169 34 -154 19 16 43 96 56 190 6 41 12 81 14 88 3 8 28
12 80 12 l77 0 -7 -32z m-462 5 c3 -5 -3 -89 -12 -187 -18 -203 -13 -194 -108
-195 -36 -1 -53 3 -53 12 0 6 7 92 16 189 16 165 18 177 38 181 38 8 115 7
119 0z m-536 -24 c54 -20 73 -48 73 -104 0 -84 -33 -105 -204 -132 -47 -8 -49
-9 -32 -26 15 -14 28 -16 84 -11 122 12 115 14 123 -31 6 -30 4 -43 -8 -52
-23 -18 -106 -33 -181 -33 -117 0 -170 43 -179 147 -11 117 36 207 123 238 47
17 162 19 201 4z m-2628 -27 c63 -31 76 -61 75 -165 -2 -156 -31 -259 -80
-292 -32 -21 -120 -37 -162 -29 -18 4 -46 17 -62 31 -28 23 -29 23 -39 5 -15
-27 -88 -55 -126 -48 -67 13 -99 83 -84 189 9 72 35 125 72 147 36 22 129 31
222 22 l70 -7 0 -45 c0 -25 -4 -78 -8 -117 -8 -69 -7 -73 12 -73 28 0 37 22
50 113 27 192 28 191 -210 179 -96 -5 -176 -8 -179 -7 -3 2 -4 24 -2 49 l4 45
51 5 c92 10 130 13 247 14 92 2 122 -2 149 -16z m1806 -69 c-4 -38 -12 -124
-18 -193 l-12 -125 -73 -3 -73 -3 7 63 c3 35 11 119 17 188 l12 125 60 6 c33
3 66 6 73 7 10 2 12 -13 7 -65z m-717 31 c50 -7 52 -8 52 -38 0 -54 -9 -59
-119 -64 -56 -2 -101 -8 -101 -13 0 -8 32 -19 107 -39 23 -6 56 -22 73 -36 26
-23 30 -32 30 -77 0 -56 -17 -85 -59 -107 -37 -19 -148 -30 -228 -23 l-73 6 0
42 c0 51 8 55 120 55 66 0 113 11 100 23 -3 2 -37 14 -77 26 -87 26 -122 53
-129 102 -8 45 17 101 51 119 49 26 151 36 253 24z m-369 -206 c-10 -101 -18
-186 -18 -190 -1 -5 -32 -8 -71 -8 -66 0 -70 1 -70 23 0 53 31 342 38 349 6 6
119 16 132 11 3 -1 -2 -84 -11 -185z m-187 132 c-5 -62 -49 -206 -80 -263 -15
-27 -39 -55 -56 -64 -43 -22 -188 -30 -204 -11 -11 14 -72 308 -72 349 0 17 8
19 74 19 87 0 81 10 92 -152 7 -109 14 -135 33 -124 15 10 41 105 55 200 l11
81 65 6 c36 3 70 5 75 4 6 -1 8 -22 7 -45z"/>
<path d="M18280 6463 c-77 -82 -201 -248 -303 -404 -142 -218 -315 -535 -333
-611 -6 -27 -5 -28 40 -28 107 0 222 74 328 212 141 181 229 369 288 608 30
126 56 278 48 286 -3 2 -34 -26 -68 -63z"/>
<path d="M14626 8485 c-304 -43 -625 -166 -1029 -393 l-89 -49 49 -7 c222 -32
419 -149 452 -269 l14 -47 -126 -258 c-69 -141 -153 -322 -187 -402 -88 -205
-180 -431 -180 -442 0 -4 51 29 113 74 461 338 901 613 1631 1023 l268 150 -5
95 c-8 165 -81 313 -199 402 -61 47 -148 89 -233 113 -83 23 -348 29 -479 10z"/>
<path d="M15455 7142 c-972 -535 -2044 -1301 -2336 -1668 -52 -66 -94 -168
-197 -484 -132 -405 -271 -975 -362 -1480 -17 -96 -36 -189 -41 -206 -13 -42
-63 -88 -129 -118 -160 -73 -445 -55 -569 35 -56 40 -75 86 -68 164 9 98 112
545 186 804 37 133 65 241 62 241 -14 0 -305 -300 -387 -400 -378 -454 -682
-1006 -750 -1356 -20 -109 -18 -239 5 -290 46 -102 119 -129 326 -121 226 8
437 73 745 227 1359 680 2970 2590 3476 4118 59 179 155 575 142 587 -2 1 -48
-22 -103 -53z"/>
<path d="M26445 7298 c-33 -35 -85 -97 -116 -138 -151 -202 -230 -311 -271
-375 -91 -143 -235 -407 -253 -464 -7 -24 -7 -24 51 -17 84 9 190 64 262 134
104 103 239 321 296 480 47 131 105 399 94 432 -2 7 -30 -17 -63 -52z"/>
<path d="M30782 4348 c-314 -332 -491 -538 -654 -763 -97 -132 -176 -285 -148
-285 16 0 333 315 428 425 130 152 316 400 437 585 102 155 171 270 162 270
-3 0 -104 -105 -225 -232z"/>
<path d="M22405 3413 c-39 -10 -74 -44 -92 -91 -15 -39 -18 -74 -17 -212 2
-261 31 -395 98 -443 26 -18 44 -22 106 -21 93 0 131 19 162 77 22 39 23 53
23 232 -1 210 -13 304 -51 381 -30 64 -68 84 -151 83 -32 -1 -67 -4 -78 -6z"/>
<path d="M16646 3088 c-3 -13 -8 -51 -11 -84 -3 -34 -17 -119 -30 -190 -14
-70 -25 -135 -25 -142 0 -12 20 -14 115 -10 63 2 117 7 121 10 3 4 -15 75 -41
160 -26 84 -53 180 -59 213 -11 54 -15 60 -39 63 -21 3 -27 -2 -31 -20z"/>
<path d="M28001 2151 c-16 -16 -21 -34 -21 -70 0 -58 18 -70 76 -51 l35 12 -3
61 c-3 62 -3 62 -35 65 -22 2 -38 -3 -52 -17z"/>
<path d="M27560 1957 c-22 -11 -25 -19 -25 -67 l0 -55 42 -3 c50 -4 62 12 66
85 2 47 1 48 -28 51 -16 1 -41 -4 -55 -11z"/>
<path d="M26391 2086 c-7 -8 -11 -32 -9 -53 3 -36 5 -38 39 -41 48 -4 69 18
69 69 l0 39 -44 0 c-26 0 -48 -6 -55 -14z"/>
<path d="M26366 1874 c-12 -11 -16 -29 -14 -58 l3 -41 47 -3 c41 -3 49 0 63
22 9 14 15 39 13 58 -3 32 -5 33 -49 36 -33 2 -51 -2 -63 -14z"/>
<path d="M25929 2054 c-7 -9 -13 -39 -14 -68 l0 -51 38 -3 c52 -4 77 19 77 69
0 20 -3 44 -6 53 -8 22 -77 21 -95 0z"/>
<path d="M25056 2017 c-12 -9 -20 -31 -23 -64 -5 -44 -2 -53 15 -62 22 -12 81
1 94 21 12 20 9 93 -4 106 -16 16 -60 15 -82 -1z"/>
<path d="M24620 2003 c-24 -10 -30 -25 -30 -79 0 -58 10 -67 60 -58 42 9 52
25 48 86 -3 51 -4 53 -33 55 -16 1 -37 -1 -45 -4z"/>
<path d="M22324 2020 c-173 -69 -250 -285 -159 -448 20 -35 23 -52 18 -89 l-6
-45 44 7 c33 5 61 1 107 -14 162 -55 327 10 399 157 38 76 40 191 5 267 -29
63 -83 120 -147 153 -69 35 -188 41 -261 12z m21 -123 c8 -13 20 -38 26 -56
10 -28 9 -35 -10 -55 l-21 -22 30 -41 c26 -36 98 -93 117 -93 4 0 17 9 29 21
22 21 24 21 74 4 34 -11 54 -24 59 -39 18 -47 -34 -96 -101 -96 -114 0 -318
192 -318 300 0 53 33 100 70 100 20 0 34 -7 45 -23z"/>
<path d="M23323 1950 c-23 -9 -41 -68 -28 -89 3 -6 26 -11 50 -11 49 0 65 16
65 68 0 40 -35 53 -87 32z"/>
<path d="M23303 1743 c-15 -3 -25 -14 -29 -31 -3 -15 -8 -34 -10 -43 -8 -29
25 -52 65 -45 42 6 57 21 66 62 10 52 -20 71 -92 57z"/>
<path d="M18469 1574 c-8 -10 -15 -48 -17 -90 -4 -71 -3 -74 18 -74 34 0 80
32 80 55 0 11 3 44 6 73 l7 52 -40 0 c-25 0 -46 -6 -54 -16z"/>
<path d="M15402 1680 c-140 -15 -158 -47 -148 -269 8 -183 18 -233 57 -265 38
-32 89 -38 266 -27 258 16 271 35 243 368 -15 187 -34 204 -222 202 -68 -1
-156 -5 -196 -9z m346 -52 c16 -16 15 -53 -2 -67 -8 -7 -27 -11 -43 -9 -51 6
-41 88 11 88 12 0 27 -5 34 -12z m-132 -59 c23 -11 54 -35 67 -53 27 -34 50
-105 43 -127 -2 -8 -7 -26 -10 -41 -8 -34 -59 -94 -97 -114 -15 -7 -51 -14
-79 -14 -61 0 -96 17 -138 64 -81 93 -52 229 60 285 54 26 100 27 154 0z"/>
<path d="M15502 1508 c-41 -11 -72 -59 -72 -111 0 -31 7 -46 35 -74 33 -33 39
-35 82 -30 86 9 128 90 88 167 -24 46 -75 65 -133 48z"/>
<path d="M20272 1658 c-5 -7 -12 -22 -16 -34 -6 -20 -4 -20 40 -14 44 7 64 21
64 48 0 7 -14 12 -39 12 -21 0 -43 -6 -49 -12z"/>
<path d="M18930 1590 c-32 -32 -26 -53 13 -45 61 12 67 16 67 41 0 20 -5 24
-30 24 -17 0 -39 -9 -50 -20z"/>
<path d="M16125 1426 c-13 -10 -20 -30 -23 -75 -4 -59 -4 -61 20 -61 38 0 68
39 75 98 l6 52 -30 0 c-16 0 -38 -6 -48 -14z"/>
<path d="M7151 17485 c-300 -66 -640 -276 -1054 -653 -487 -443 -999 -1123
-1410 -1873 -142 -259 -307 -601 -307 -636 0 -8 29 -115 64 -237 250 -856 537
-1616 935 -2476 58 -125 67 -138 112 -169 79 -54 182 -171 227 -258 55 -107
82 -207 87 -327 l4 -99 87 -156 c128 -232 278 -490 285 -491 3 0 20 102 38
228 96 669 406 2359 637 3479 239 1161 341 1686 388 2014 80 547 101 1126 52
1429 -23 140 -49 235 -66 237 -8 1 -44 -5 -79 -12z"/>
<path d="M18275 13690 c-36 -37 -38 -41 -25 -65 10 -19 16 -22 21 -12 11 19
49 117 46 117 -2 0 -20 -18 -42 -40z"/>
<path d="M3977 13173 c-68 -281 -104 -489 -128 -746 -15 -165 -7 -483 16 -597
31 -162 80 -305 119 -348 78 -88 330 -128 512 -82 63 16 254 96 254 106 0 1
-18 42 -41 91 -186 403 -436 1036 -600 1522 -44 129 -81 236 -83 238 -2 3 -24
-80 -49 -184z"/>
<path d="M5385 10018 c-164 -144 -416 -285 -680 -379 -66 -24 -122 -44 -124
-46 -17 -13 492 -837 757 -1228 254 -374 812 -1132 812 -1103 0 1 -13 55 -29
119 -60 236 -81 454 -81 846 0 266 11 565 29 787 l8 99 -74 115 c-156 240
-457 733 -507 830 -9 17 -20 32 -24 31 -4 0 -43 -32 -87 -71z"/>
<path d="M7791 5439 c528 -524 1163 -1072 1803 -1556 l189 -144 69 131 c82
157 235 414 313 525 l56 80 -38 30 c-136 107 -284 279 -365 427 l-43 77 -110
1 c-223 1 -513 42 -813 116 -444 109 -848 276 -1260 520 -15 9 74 -84 199
-207z"/>
<path d="M29330 2104 c0 -80 -31 -197 -75 -285 -33 -66 -34 -70 -13 -64 26 9
480 225 490 234 4 3 -34 19 -85 36 -51 16 -143 55 -204 85 l-113 55 0 -61z"/>
<path d="M14065 2089 c-101 -78 -494 -344 -597 -404 -38 -21 -65 -42 -60 -46
16 -16 865 -369 887 -369 2 0 -8 26 -22 58 -61 137 -80 270 -99 680 -4 83 -10
152 -13 151 -3 0 -46 -32 -96 -70z"/>
<path d="M27285 1375 c-116 -56 -198 -71 -455 -85 -288 -14 -412 -13 -488 6
-59 15 -68 15 -121 0 -125 -35 -477 -72 -881 -92 -137 -6 -269 4 -368 31 -41
10 -54 10 -83 -2 -154 -65 -558 -89 -728 -43 -34 9 -50 7 -115 -15 -94 -32
-168 -40 -462 -55 -172 -9 -249 -9 -305 -1 -87 14 -202 4 -325 -28 -175 -45
-358 -57 -764 -52 -107 1 -307 -5 -445 -14 -137 -9 -351 -18 -475 -20 -124 -2
-252 -8 -285 -14 -71 -12 -422 -32 -620 -35 -90 -2 -181 -10 -255 -24 -313
-57 -649 -51 -891 17 -63 18 -66 18 -101 0 -73 -37 -207 -68 -346 -80 -153
-13 -350 -8 -428 11 -45 11 -57 10 -110 -8 -100 -34 -158 -41 -479 -57 -170
-9 -382 -20 -470 -25 -234 -14 -364 -12 -448 6 -72 16 -76 16 -129 -4 -81 -30
-151 -40 -373 -52 -110 -5 -238 -13 -285 -16 l-85 -7 65 -19 c36 -10 187 -50
335 -88 2106 -542 4277 -723 6475 -540 1617 135 3265 488 4770 1023 339 120
702 258 696 264 -3 3 -99 0 -213 -7 -336 -20 -523 -5 -666 55 -20 8 -40 15
-44 14 -4 0 -48 -20 -98 -44z"/>
</g>
</svg>
